<svg id="圖層_1" data-name="圖層 1" xmlns="http://www.w3.org/2000/svg" viewBox="0 0 594.07 379.5"><rect x="440.77" y="155.86" width="6.15" height="24.81" fill="#efbc27"/><rect x="438.24" y="130.09" width="11.72" height="3.56" stroke-width="2" stroke="#231815" stroke-linecap="round" stroke-linejoin="round" fill="#fff"/><rect x="438.24" y="140.23" width="11.72" height="44.26" stroke-width="2" stroke="#231815" stroke-linecap="round" stroke-linejoin="round" fill="none"/><rect x="442.02" y="133.65" width="4.03" height="6.58" stroke-width="2" stroke="#231815" stroke-linecap="round" stroke-linejoin="round" fill="#fff"/><polygon points="438.24 184.49 444.1 192.94 449.96 184.49 438.24 184.49" fill="#fff" stroke="#231815" stroke-linecap="round" stroke-linejoin="round" stroke-width="2"/><line x1="444.1" y1="192.94" x2="444.1" y2="200.51" fill="#fff" stroke="#231815" stroke-linecap="round" stroke-linejoin="round" stroke-width="2"/><line x1="438.24" y1="152.35" x2="442.02" y2="152.35" fill="#fff" stroke="#231815" stroke-linecap="round" stroke-linejoin="round" stroke-width="2"/><line x1="438.24" y1="157.65" x2="442.02" y2="157.65" fill="#fff" stroke="#231815" stroke-linecap="round" stroke-linejoin="round" stroke-width="2"/><line x1="438.24" y1="162.94" x2="442.02" y2="162.94" fill="#fff" stroke="#231815" stroke-linecap="round" stroke-linejoin="round" stroke-width="2"/><line x1="438.24" y1="168.23" x2="442.02" y2="168.23" fill="#fff" stroke="#231815" stroke-linecap="round" stroke-linejoin="round" stroke-width="2"/><rect x="464.61" y="170.14" width="24.45" height="30.37" rx="4.9" stroke-width="2" stroke="#231815" stroke-linecap="round" stroke-linejoin="round" fill="#fff"/><rect x="464.61" y="161.42" width="24.45" height="3.94" stroke-width="2" stroke="#231815" stroke-linecap="round" stroke-linejoin="round" fill="#231815"/><rect x="437.15" y="259.87" width="72.14" height="118.63" stroke-width="2" stroke="#231815" stroke-linecap="round" stroke-linejoin="round" fill="#3d9fd2"/><rect x="437.15" y="242.67" width="72.14" height="118.63" stroke-width="2" stroke="#231815" stroke-linecap="round" stroke-linejoin="round" fill="#3d9fd2"/><rect x="412.85" y="1" width="101.06" height="75.98" rx="11.67" stroke-width="2" stroke="#231815" stroke-linecap="round" stroke-linejoin="round" fill="#3d9fd2"/><rect x="99.92" y="2.89" width="78.44" height="112.37" stroke-width="2" stroke="#231815" stroke-linecap="round" stroke-linejoin="round" fill="#fff"/><rect x="99.92" y="141.23" width="51.5" height="85" stroke-width="2" stroke="#231815" stroke-linecap="round" stroke-linejoin="round" fill="#3d9fd2"/><rect x="163.2" y="142.21" width="9.35" height="84.03" stroke-width="2" stroke="#231815" stroke-linecap="round" stroke-linejoin="round" fill="#3d9fd2"/><path d="M117.73,265.82H165.2A17.81,17.81,0,0,1,183,283.64V370a0,0,0,0,1,0,0H99.92a0,0,0,0,1,0,0V283.64A17.81,17.81,0,0,1,117.73,265.82Z" fill="#3d9fd2" stroke="#231815" stroke-linecap="round" stroke-linejoin="round" stroke-width="2"/><rect x="421.09" y="10.6" width="83.08" height="57.77" stroke-width="2" stroke="#231815" stroke-linecap="round" stroke-linejoin="round" fill="#fff"/><rect x="431.05" y="20.05" width="24.81" height="38.51" stroke-width="2" stroke="#231815" stroke-linecap="round" stroke-linejoin="round" fill="#efbc27"/><rect x="433.56" y="86.44" width="62.73" height="5.26" stroke-width="2" stroke="#231815" stroke-linecap="round" stroke-linejoin="round" fill="#231815"/><rect x="455.85" y="77.71" width="15.99" height="8.73" stroke-width="2" stroke="#231815" stroke-linecap="round" stroke-linejoin="round" fill="#231815"/><line x1="464.93" y1="32.03" x2="494.07" y2="32.03" fill="none" stroke="#231815" stroke-linecap="round" stroke-linejoin="round" stroke-width="2"/><line x1="464.93" y1="40.87" x2="494.07" y2="40.87" fill="none" stroke="#231815" stroke-linecap="round" stroke-linejoin="round" stroke-width="2"/><line x1="464.93" y1="49.72" x2="494.07" y2="49.72" fill="none" stroke="#231815" stroke-linecap="round" stroke-linejoin="round" stroke-width="2"/><line x1="464.93" y1="58.56" x2="494.07" y2="58.56" fill="none" stroke="#231815" stroke-linecap="round" stroke-linejoin="round" stroke-width="2"/><path d="M442.85,36.75h1.75A6.41,6.41,0,0,1,451,43.16v7.33a0,0,0,0,1,0,0H436.44a0,0,0,0,1,0,0V43.16A6.41,6.41,0,0,1,442.85,36.75Z" fill="#fff" stroke="#231815" stroke-linecap="round" stroke-linejoin="round" stroke-width="2"/><circle cx="443.68" cy="34.22" r="5.23" fill="#fff" stroke="#231815" stroke-linecap="round" stroke-linejoin="round" stroke-width="2"/><rect x="446.05" y="253.18" width="24.81" height="38.51" stroke-width="2" stroke="#231815" stroke-linecap="round" stroke-linejoin="round" fill="#efbc27"/><path d="M457.85,269.88h1.75a6.41,6.41,0,0,1,6.41,6.41v7.33a0,0,0,0,1,0,0H451.44a0,0,0,0,1,0,0v-7.33A6.41,6.41,0,0,1,457.85,269.88Z" fill="#fff" stroke="#231815" stroke-linecap="round" stroke-linejoin="round" stroke-width="2"/><circle cx="458.68" cy="267.35" r="5.23" fill="#fff" stroke="#231815" stroke-linecap="round" stroke-linejoin="round" stroke-width="2"/><rect x="469.65" y="165.37" width="14.83" height="4.77" stroke-width="2" stroke="#231815" stroke-linecap="round" stroke-linejoin="round" fill="#fff"/><rect x="496.62" y="174.95" width="12.67" height="26.81" rx="6.34" stroke-width="2" stroke="#231815" stroke-linecap="round" stroke-linejoin="round" fill="#fff"/><line x1="496.62" y1="186.69" x2="509.29" y2="186.69" fill="none" stroke="#231815" stroke-linecap="round" stroke-linejoin="round" stroke-width="2"/><rect x="464.61" y="175.04" width="10.25" height="19.08" stroke-width="2" stroke="#231815" stroke-linecap="round" stroke-linejoin="round" fill="#efbc27"/><path d="M466.37,129.92h43.32a0,0,0,0,1,0,0v7a0,0,0,0,1,0,0H466.37a3.51,3.51,0,0,1-3.51-3.51v0A3.51,3.51,0,0,1,466.37,129.92Z" fill="#3d9fd2" stroke="#231815" stroke-linecap="round" stroke-linejoin="round" stroke-width="2"/><path d="M466.37,129.92h21.13a0,0,0,0,1,0,0v7a0,0,0,0,1,0,0H466.37a3.51,3.51,0,0,1-3.51-3.51v0A3.51,3.51,0,0,1,466.37,129.92Z" fill="#fff" stroke="#231815" stroke-linecap="round" stroke-linejoin="round" stroke-width="2"/><path d="M466.37,143.38h43.32a0,0,0,0,1,0,0v7a0,0,0,0,1,0,0H466.37a3.51,3.51,0,0,1-3.51-3.51v0A3.51,3.51,0,0,1,466.37,143.38Z" fill="#3d9fd2" stroke="#231815" stroke-linecap="round" stroke-linejoin="round" stroke-width="2"/><path d="M466.37,143.38h21.13a0,0,0,0,1,0,0v7a0,0,0,0,1,0,0H466.37a3.51,3.51,0,0,1-3.51-3.51v0A3.51,3.51,0,0,1,466.37,143.38Z" fill="#fff" stroke="#231815" stroke-linecap="round" stroke-linejoin="round" stroke-width="2"/><line x1="437.15" y1="366.35" x2="509.29" y2="366.35" fill="none" stroke="#231815" stroke-linecap="round" stroke-linejoin="round" stroke-width="2.16"/><line x1="437.15" y1="371.38" x2="509.29" y2="371.38" fill="none" stroke="#231815" stroke-linecap="round" stroke-linejoin="round" stroke-width="2.16"/><line x1="447.76" y1="304.62" x2="496.62" y2="304.62" fill="none" stroke="#231815" stroke-linecap="round" stroke-linejoin="round" stroke-width="2"/><line x1="447.76" y1="313.97" x2="496.62" y2="313.97" fill="none" stroke="#231815" stroke-linecap="round" stroke-linejoin="round" stroke-width="2"/><line x1="447.76" y1="323.31" x2="496.62" y2="323.31" fill="none" stroke="#231815" stroke-linecap="round" stroke-linejoin="round" stroke-width="2"/><line x1="477.95" y1="257.8" x2="499" y2="257.8" fill="#fff" stroke="#231815" stroke-linecap="round" stroke-linejoin="round" stroke-width="2"/><line x1="477.95" y1="267.14" x2="499" y2="267.14" fill="#fff" stroke="#231815" stroke-linecap="round" stroke-linejoin="round" stroke-width="2"/><line x1="477.95" y1="276.49" x2="499" y2="276.49" fill="#fff" stroke="#231815" stroke-linecap="round" stroke-linejoin="round" stroke-width="2"/><line x1="477.95" y1="285.88" x2="499" y2="285.88" fill="#fff" stroke="#231815" stroke-linecap="round" stroke-linejoin="round" stroke-width="2"/><line x1="447.76" y1="332.66" x2="496.62" y2="332.66" fill="none" stroke="#231815" stroke-linecap="round" stroke-linejoin="round" stroke-width="2"/><line x1="447.76" y1="342.01" x2="496.62" y2="342.01" fill="none" stroke="#231815" stroke-linecap="round" stroke-linejoin="round" stroke-width="2.16"/><path d="M130.67,37.82h5.17a0,0,0,0,1,0,0V97a0,0,0,0,1,0,0H115a0,0,0,0,1,0,0V53.46A15.64,15.64,0,0,1,130.67,37.82Z" fill="#efbc27" stroke="#231815" stroke-linecap="round" stroke-linejoin="round" stroke-width="2"/><path d="M142.21,37.82H163a0,0,0,0,1,0,0V97a0,0,0,0,1,0,0h-5.17a15.64,15.64,0,0,1-15.64-15.64V37.82a0,0,0,0,1,0,0Z" transform="translate(305.23 134.78) rotate(-180)" fill="#efbc27" stroke="#231815" stroke-linecap="round" stroke-linejoin="round" stroke-width="2"/><rect x="128.91" y="21.2" width="6.93" height="16.62" stroke-width="2" stroke="#231815" stroke-linecap="round" stroke-linejoin="round" fill="#fff"/><rect x="141.85" y="21.2" width="6.93" height="16.62" stroke-width="2" stroke="#231815" stroke-linecap="round" stroke-linejoin="round" fill="#fff"/><rect x="135.84" y="47.8" width="6.36" height="18.27" stroke-width="2" stroke="#231815" stroke-linecap="round" stroke-linejoin="round" fill="#fff"/><rect x="106.39" y="148.63" width="38.29" height="68.42" stroke-width="2" stroke="#231815" stroke-linecap="round" stroke-linejoin="round" fill="#fff"/><rect x="115.03" y="136.94" width="20.81" height="15.41" stroke-width="2" stroke="#231815" stroke-linecap="round" stroke-linejoin="round" fill="#231815"/><line x1="116.46" y1="175.04" x2="135.84" y2="175.04" fill="none" stroke="#231815" stroke-linecap="round" stroke-linejoin="round" stroke-width="2"/><line x1="116.46" y1="185.32" x2="135.84" y2="185.32" fill="none" stroke="#231815" stroke-linecap="round" stroke-linejoin="round" stroke-width="2"/><line x1="116.46" y1="194.96" x2="135.84" y2="194.96" fill="none" stroke="#231815" stroke-linecap="round" stroke-linejoin="round" stroke-width="2"/><line x1="116.46" y1="203.79" x2="135.84" y2="203.79" fill="none" stroke="#231815" stroke-linecap="round" stroke-linejoin="round" stroke-width="2"/><path d="M181,304.62H117.54V284.45a3.7,3.7,0,0,0-3.71-3.7h-2.3a3.7,3.7,0,0,0-3.7,3.7V302" fill="none" stroke="#231815" stroke-linecap="round" stroke-linejoin="round" stroke-width="2"/><rect x="143.44" y="297.07" width="17.44" height="21.39" rx="8.72" stroke-width="2" stroke="#231815" stroke-linecap="round" stroke-linejoin="round" fill="#efbc27"/><path d="M496.62,186.69h12.67a0,0,0,0,1,0,0v9.67a6.34,6.34,0,0,1-6.34,6.34h0a6.34,6.34,0,0,1-6.34-6.34v-9.67A0,0,0,0,1,496.62,186.69Z" fill="#231815" stroke="#231815" stroke-linecap="round" stroke-linejoin="round" stroke-width="2"/><circle cx="493.16" cy="195.23" r="9.22" fill="#efbc27" stroke="#231815" stroke-linecap="round" stroke-linejoin="round" stroke-width="2"/><line x1="498.5" y1="187.73" x2="489.06" y2="200.51" fill="none" stroke="#231815" stroke-linecap="round" stroke-linejoin="round" stroke-width="2"/><rect x="227.28" y="79.96" width="42.73" height="101.39" stroke-width="2" stroke="#231815" stroke-linecap="round" stroke-linejoin="round" fill="#3d9fd2"/><rect x="209.2" y="182.13" width="40.27" height="155.54" stroke-width="2" stroke="#231815" stroke-linecap="round" stroke-linejoin="round" fill="#231815"/><path d="M216,351h27.56a0,0,0,0,1,0,0v19a0,0,0,0,1,0,0H197.62a0,0,0,0,1,0,0v-.62A18.35,18.35,0,0,1,216,351Z" fill="#231815" stroke="#231815" stroke-linecap="round" stroke-linejoin="round" stroke-width="2"/><rect x="216.53" y="337.68" width="27.01" height="13.31" stroke-width="2" stroke="#231815" stroke-linecap="round" stroke-linejoin="round" fill="#fff"/><rect x="249.48" y="182.13" width="40.27" height="155.54" stroke-width="2" stroke="#231815" stroke-linecap="round" stroke-linejoin="round" fill="#231815"/><path d="M255.41,351h45.92a0,0,0,0,1,0,0v19a0,0,0,0,1,0,0H273.77a18.35,18.35,0,0,1-18.35-18.35V351A0,0,0,0,1,255.41,351Z" transform="translate(556.75 720.94) rotate(-180)" fill="#231815" stroke="#231815" stroke-linecap="round" stroke-linejoin="round" stroke-width="2"/><rect x="255.41" y="337.68" width="27.01" height="13.31" transform="translate(537.84 688.66) rotate(-180)" stroke-width="2" stroke="#231815" stroke-linecap="round" stroke-linejoin="round" fill="#fff"/><line x1="249.48" y1="223.82" x2="249.48" y2="337.68" fill="none" stroke="#fff" stroke-linecap="round" stroke-linejoin="round" stroke-width="2"/><line x1="209.2" y1="150.55" x2="209.2" y2="125.48" fill="#fff" stroke="#231815" stroke-linecap="round" stroke-linejoin="round" stroke-width="2"/><path d="M191.68,150.55v52.18h0a29.72,29.72,0,0,0,13.8,25.09l3.72,2.36V150.55Z" fill="#fff" stroke="#231815" stroke-linecap="round" stroke-linejoin="round" stroke-width="2"/><line x1="191.68" y1="202.73" x2="200.44" y2="202.73" fill="none" stroke="#231815" stroke-linecap="round" stroke-linejoin="round" stroke-width="2"/><path d="M296.67,92.82h0a43.45,43.45,0,0,0-23.33-14l-24.69-5.18-23,5.18a43.46,43.46,0,0,0-33.93,42.41v29.28H209.2V305.16h0a24.18,24.18,0,0,0,24.18-24l1.92-201.14,27.58-.87,1.46,201.65a24.18,24.18,0,0,0,24.18,24h1.22V150.55h17.52V121.27A43.46,43.46,0,0,0,296.67,92.82Z" fill="#fff" stroke="#231815" stroke-linecap="round" stroke-linejoin="round" stroke-width="2"/><line x1="289.75" y1="150.55" x2="289.75" y2="125.48" fill="#fff" stroke="#231815" stroke-linecap="round" stroke-linejoin="round" stroke-width="2"/><path d="M307.27,150.55v52.18h0a29.72,29.72,0,0,1-13.8,25.09l-3.72,2.36V150.55Z" fill="#fff" stroke="#231815" stroke-linecap="round" stroke-linejoin="round" stroke-width="2"/><line x1="307.27" y1="202.73" x2="298.51" y2="202.73" fill="none" stroke="#231815" stroke-linecap="round" stroke-linejoin="round" stroke-width="2"/><path d="M235.31,68.1v12a13.31,13.31,0,0,0,5.19,10.54h0A13.29,13.29,0,0,0,257.4,90l1-.88a13.27,13.27,0,0,0,4.49-10V66.56l-25.63,3.09" fill="#fff" stroke="#231815" stroke-linecap="round" stroke-linejoin="round" stroke-width="2"/><path d="M268.55,42.11s5.36-2.6,7.73,0,2.74,17.11-8.71,15.16" fill="#fff" stroke="#231815" stroke-linecap="round" stroke-linejoin="round" stroke-width="2"/><path d="M227.29,38.55s-7.34-.92-7.36,6.79c0,10.06,5,11,7.95,11.74" fill="#fff" stroke="#231815" stroke-linecap="round" stroke-linejoin="round" stroke-width="2"/><path d="M270,39.74s-.71,20.41-2.13,25.4-15.43,9-19.23,8.54-13.29-1-17.56-6.88-3.56-15.91-3.8-28.25,10-21.6,10-21.6,17.09-3.32,24.74,1.49S270,39.74,270,39.74Z" fill="#fff" stroke="#231815" stroke-linecap="round" stroke-linejoin="round" stroke-width="2"/><path d="M260.32,17.57s-2.59,7.81.79,11.73,6,13.79,11.38,12.88,6.24-10.93,4.29-15S268.78,14,260.32,17.57Z" fill="#231815" stroke="#231815" stroke-linecap="round" stroke-linejoin="round" stroke-width="2"/><path d="M237.26,17S231,13.63,225,20.75s-7.73,16.14-4,20.18c0,0,6.08-2.1,6.39-4.52S231.32,19.8,237.26,17Z" fill="#231815" stroke="#231815" stroke-linecap="round" stroke-linejoin="round" stroke-width="2"/><circle cx="238.59" cy="46.83" r="2.4" fill="#231815"/><circle cx="259.19" cy="46.83" r="2.4" fill="#231815"/><path d="M228.12,21s14.53-22.53,37.32-4.09c0,0-7.84,15-14.3,17.22l-9.43,2.68-1-6.08s-5,7.81-12.84,3.27S228.12,21,228.12,21Z" fill="#231815" stroke="#231815" stroke-linecap="round" stroke-linejoin="round" stroke-width="2"/><path d="M347.65,358.82h21.86a0,0,0,0,1,0,0v15a0,0,0,0,1,0,0H333.09a0,0,0,0,1,0,0v-.49A14.56,14.56,0,0,1,347.65,358.82Z" fill="#231815" stroke="#231815" stroke-linecap="round" stroke-linejoin="round" stroke-width="2"/><rect x="348.09" y="318.16" width="21.42" height="40.67" stroke-width="2" stroke="#231815" stroke-linecap="round" stroke-linejoin="round" fill="#fff"/><path d="M369.51,358.82h36.42a0,0,0,0,1,0,0v15a0,0,0,0,1,0,0H384.07a14.56,14.56,0,0,1-14.56-14.56v-.49A0,0,0,0,1,369.51,358.82Z" transform="translate(775.44 732.69) rotate(-180)" fill="#231815" stroke="#231815" stroke-linecap="round" stroke-linejoin="round" stroke-width="2"/><rect x="369.51" y="318.16" width="21.42" height="40.67" transform="translate(760.44 676.98) rotate(-180)" stroke-width="2" stroke="#231815" stroke-linecap="round" stroke-linejoin="round" fill="#fff"/><path d="M317.29,164.87V218a29.71,29.71,0,0,0,12.62,24.31l3.18,2.24V164.87Z" fill="#fff" stroke="#231815" stroke-linecap="round" stroke-linejoin="round" stroke-width="2"/><line x1="317.29" y1="217.06" x2="325.19" y2="217.06" fill="none" stroke="#231815" stroke-linecap="round" stroke-linejoin="round" stroke-width="2"/><path d="M420.75,164.87V218a29.71,29.71,0,0,1-12.62,24.31l-3.19,2.24V164.87Z" fill="#fff" stroke="#231815" stroke-linecap="round" stroke-linejoin="round" stroke-width="2"/><line x1="420.75" y1="217.06" x2="412.85" y2="217.06" fill="none" stroke="#231815" stroke-linecap="round" stroke-linejoin="round" stroke-width="2"/><rect x="333.09" y="201.58" width="35.92" height="116.58" stroke-width="2" stroke="#231815" stroke-linecap="round" stroke-linejoin="round" fill="#231815"/><path d="M410.56,114.15h0A43.48,43.48,0,0,0,386.84,99.7l-17.82-4-17.83,4a43.55,43.55,0,0,0-23.72,14.45h0a43.48,43.48,0,0,0-10.18,28v25.16h15.8v34.3h71.85v-34.3h15.81V142.12A43.49,43.49,0,0,0,410.56,114.15Z" fill="#3d9fd2" stroke="#231815" stroke-linecap="round" stroke-linejoin="round" stroke-width="2"/><rect x="369.02" y="201.58" width="35.92" height="116.58" transform="translate(773.96 519.74) rotate(-180)" stroke-width="2" stroke="#231815" stroke-linecap="round" stroke-linejoin="round" fill="#231815"/><path d="M357.05,87.86v11a12.25,12.25,0,0,0,4.78,9.7h0a12.24,12.24,0,0,0,15.56-.53l.92-.8a12.26,12.26,0,0,0,4.13-9.18V86.44l-23.59,2.84" fill="#fff" stroke="#231815" stroke-linecap="round" stroke-linejoin="round" stroke-width="2"/><path d="M387.66,63.93s4.93-2.39,7.11,0,2.52,15.75-8,13.95" fill="#fff" stroke="#231815" stroke-linecap="round" stroke-linejoin="round" stroke-width="2"/><path d="M349.67,60.65s-6.76-.85-6.78,6.25c0,9.27,4.58,10.17,7.32,10.81" fill="#fff" stroke="#231815" stroke-linecap="round" stroke-linejoin="round" stroke-width="2"/><path d="M389,61.75c.16,7.31.94,16.17-2.18,23C381.67,96,360,96.14,353.16,86.66c-3.93-5.47-3.27-14.64-3.49-26s9.18-19.88,9.18-19.88,15.73-3.06,22.78,1.36S389,61.73,389,61.75Z" fill="#fff" stroke="#231815" stroke-linecap="round" stroke-linejoin="round" stroke-width="2"/><path d="M358.85,40.77s-5.74-3.06-11.31,3.5-7.13,14.85-3.7,18.57c0,0,5.6-1.93,5.89-4.16S353.38,43.39,358.85,40.77Z" fill="#231815" stroke="#231815" stroke-linecap="round" stroke-linejoin="round" stroke-width="2"/><circle cx="360.24" cy="67.83" r="2.21" fill="#231815"/><circle cx="379.64" cy="67.83" r="2.21" fill="#231815"/><path d="M364.26,77.25s4.21,1.8,10.84,0" fill="#fff" stroke="#231815" stroke-linecap="round" stroke-linejoin="round" stroke-width="2"/><path d="M371.78,67v3.46a2.42,2.42,0,0,1-2.4,2.41h0A2.42,2.42,0,0,1,367,70.47V67" fill="#fff" stroke="#231815" stroke-linecap="round" stroke-linejoin="round" stroke-width="2"/><path d="M369,36.92s-4.37,24.65-20.71,23.7l2.19-19S356.31,34.06,369,36.92Z" fill="#231815" stroke="#231815" stroke-linecap="round" stroke-linejoin="round" stroke-width="2"/><path d="M379.08,40.77s5.74-3.06,11.31,3.5,7.12,14.85,3.7,18.57c0,0-5.6-1.93-5.89-4.16S384.54,43.39,379.08,40.77Z" fill="#231815" stroke="#231815" stroke-linecap="round" stroke-linejoin="round" stroke-width="2"/><path d="M369,36.92s4.38,24.65,20.72,23.7l-2.19-19S381.62,34.06,369,36.92Z" fill="#231815" stroke="#231815" stroke-linecap="round" stroke-linejoin="round" stroke-width="2"/><rect x="361.71" y="20.05" width="15.24" height="23.95" rx="7.62" stroke-width="2" stroke="#231815" stroke-linecap="round" stroke-linejoin="round" fill="#231815"/><path d="M357.31,98.88l12.63,12.24L365.49,122l-10.35-9.32a6.54,6.54,0,0,1-1.2-8.46Z" fill="#fff" stroke="#231815" stroke-linecap="round" stroke-linejoin="round" stroke-width="2"/><path d="M382.57,98.88l-12.63,12.24L374.39,122l10.35-9.32a6.54,6.54,0,0,0,1.2-8.46Z" fill="#fff" stroke="#231815" stroke-linecap="round" stroke-linejoin="round" stroke-width="2"/><line x1="333.09" y1="167.28" x2="333.09" y2="140.23" fill="none" stroke="#231815" stroke-linecap="round" stroke-linejoin="round" stroke-width="2"/><line x1="404.94" y1="167.28" x2="404.94" y2="140.23" fill="none" stroke="#231815" stroke-linecap="round" stroke-linejoin="round" stroke-width="2"/><path d="M333.21,3.67H290.67a9.68,9.68,0,0,0-5.28,17.8l1.46,8.39,7-6.82h39.38a9.69,9.69,0,0,0,0-19.37Z" fill="#fff" stroke="#231815" stroke-linecap="round" stroke-linejoin="round" stroke-width="2"/><path d="M304.37,33.14H330.2a9.23,9.23,0,0,1,9.23,9.23h0a9.23,9.23,0,0,1-9.23,9.23h-1.3v7.95L321,51.6H304.37a9.22,9.22,0,0,1-9.22-9.23h0A9.22,9.22,0,0,1,304.37,33.14Z" fill="#fff" stroke="#231815" stroke-linecap="round" stroke-linejoin="round" stroke-width="2"/><path d="M252.24,45.39V49.6A3.36,3.36,0,0,1,248.89,53h0a3.36,3.36,0,0,1-3.35-3.35V45.39" fill="#fff" stroke="#231815" stroke-linecap="round" stroke-linejoin="round" stroke-width="2"/><path d="M242,56.09s6,3.78,14.77,0" fill="#fff" stroke="#231815" stroke-linecap="round" stroke-linejoin="round" stroke-width="2"/><rect x="547.42" y="206.5" width="45.65" height="75.16" rx="11.11" stroke-width="2" stroke="#231815" stroke-linecap="round" stroke-linejoin="round" fill="#fff"/><rect x="555.07" y="215.69" width="30.2" height="49.97" stroke-width="2" stroke="#231815" stroke-linecap="round" stroke-linejoin="round" fill="#4d7ea6"/><circle cx="569.81" cy="273.74" r="3.19" fill="#fff" stroke="#231815" stroke-linecap="round" stroke-linejoin="round" stroke-width="2"/><rect x="1" y="207.33" width="38.79" height="62.42" stroke-width="2" stroke="#231815" stroke-linecap="round" stroke-linejoin="round" fill="#3d9fd2"/><rect x="39.79" y="207.33" width="37.45" height="62.42" stroke-width="2" stroke="#231815" stroke-linecap="round" stroke-linejoin="round" fill="#3d9fd2"/><rect x="9.55" y="212.92" width="22.56" height="8.8" stroke-width="2" stroke="#231815" stroke-linecap="round" stroke-linejoin="round" fill="#efbc27"/><line x1="9.55" y1="228.59" x2="32.11" y2="228.59" fill="none" stroke="#231815" stroke-linecap="round" stroke-linejoin="round" stroke-width="2"/><line x1="9.55" y1="235.47" x2="32.11" y2="235.47" fill="none" stroke="#231815" stroke-linecap="round" stroke-linejoin="round" stroke-width="2"/><line x1="9.55" y1="242.34" x2="32.11" y2="242.34" fill="none" stroke="#231815" stroke-linecap="round" stroke-linejoin="round" stroke-width="2"/><line x1="9.55" y1="249.21" x2="32.11" y2="249.21" fill="none" stroke="#231815" stroke-linecap="round" stroke-linejoin="round" stroke-width="2"/><line x1="9.55" y1="256.09" x2="32.11" y2="256.09" fill="none" stroke="#231815" stroke-linecap="round" stroke-linejoin="round" stroke-width="2"/><line x1="9.55" y1="262.96" x2="32.11" y2="262.96" fill="none" stroke="#231815" stroke-linecap="round" stroke-linejoin="round" stroke-width="2"/><rect x="47.67" y="228.59" width="20.42" height="35.66" stroke-width="2" stroke="#231815" stroke-linecap="round" stroke-linejoin="round" fill="#efbc27"/><line x1="47.67" y1="213.77" x2="68.09" y2="213.77" fill="none" stroke="#231815" stroke-linecap="round" stroke-linejoin="round" stroke-width="2"/><line x1="47.67" y1="218.51" x2="68.09" y2="218.51" fill="none" stroke="#231815" stroke-linecap="round" stroke-linejoin="round" stroke-width="2"/><line x1="47.67" y1="223.24" x2="68.09" y2="223.24" fill="none" stroke="#231815" stroke-linecap="round" stroke-linejoin="round" stroke-width="2"/><rect x="9.55" y="88.5" width="60.43" height="96.54" stroke-width="2" stroke="#231815" stroke-linecap="round" stroke-linejoin="round" fill="#3d9fd2"/><rect x="19.31" y="97.58" width="41.64" height="11.17" rx="3.02" stroke-width="2" stroke="#231815" stroke-linecap="round" stroke-linejoin="round" fill="#efbc27"/><line x1="22.32" y1="117.52" x2="57.78" y2="117.52" fill="none" stroke="#231815" stroke-linecap="round" stroke-linejoin="round" stroke-width="2"/><line x1="22.32" y1="126.28" x2="57.78" y2="126.28" fill="none" stroke="#231815" stroke-linecap="round" stroke-linejoin="round" stroke-width="2"/><line x1="22.32" y1="135.05" x2="57.78" y2="135.05" fill="none" stroke="#231815" stroke-linecap="round" stroke-linejoin="round" stroke-width="2"/><line x1="22.32" y1="143.81" x2="57.78" y2="143.81" fill="none" stroke="#231815" stroke-linecap="round" stroke-linejoin="round" stroke-width="2"/><path d="M26.18,165.88h0a5.48,5.48,0,0,1,5.48,5.48v5.48a0,0,0,0,1,0,0h-11a0,0,0,0,1,0,0v-5.48A5.48,5.48,0,0,1,26.18,165.88Z" fill="#fff" stroke="#231815" stroke-linecap="round" stroke-linejoin="round" stroke-width="2"/><circle cx="26.2" cy="164.28" r="3.1" fill="#fff" stroke="#231815" stroke-linecap="round" stroke-linejoin="round" stroke-width="2"/><path d="M39.74,165.88h0a5.48,5.48,0,0,1,5.48,5.48v5.48a0,0,0,0,1,0,0h-11a0,0,0,0,1,0,0v-5.48A5.48,5.48,0,0,1,39.74,165.88Z" fill="#fff" stroke="#231815" stroke-linecap="round" stroke-linejoin="round" stroke-width="2"/><circle cx="39.77" cy="164.28" r="3.1" fill="#fff" stroke="#231815" stroke-linecap="round" stroke-linejoin="round" stroke-width="2"/><path d="M53.3,165.88h0a5.48,5.48,0,0,1,5.48,5.48v5.48a0,0,0,0,1,0,0h-11a0,0,0,0,1,0,0v-5.48A5.48,5.48,0,0,1,53.3,165.88Z" fill="#fff" stroke="#231815" stroke-linecap="round" stroke-linejoin="round" stroke-width="2"/><circle cx="53.33" cy="164.28" r="3.1" fill="#fff" stroke="#231815" stroke-linecap="round" stroke-linejoin="round" stroke-width="2"/><rect x="534.81" y="98.5" width="57.3" height="91.54" stroke-width="2" stroke="#231815" stroke-linecap="round" stroke-linejoin="round" fill="#3d9fd2"/><circle cx="563.7" cy="124.48" r="18.26" fill="#efbc27" stroke="#231815" stroke-linecap="round" stroke-linejoin="round" stroke-width="2"/><circle cx="553.53" cy="171.88" r="10.77" fill="#efbc27" stroke="#231815" stroke-linecap="round" stroke-linejoin="round" stroke-width="2"/><circle cx="573.48" cy="154.73" r="8.2" fill="#efbc27" stroke="#231815" stroke-linecap="round" stroke-linejoin="round" stroke-width="2"/><line x1="543.99" y1="149.36" x2="559.51" y2="149.36" fill="none" stroke="#231815" stroke-linecap="round" stroke-linejoin="round" stroke-width="2"/><line x1="543.99" y1="154.47" x2="559.51" y2="154.47" fill="none" stroke="#231815" stroke-linecap="round" stroke-linejoin="round" stroke-width="2"/><line x1="568.8" y1="169.29" x2="583.07" y2="169.29" fill="none" stroke="#231815" stroke-linecap="round" stroke-linejoin="round" stroke-width="2"/><line x1="568.8" y1="174.4" x2="583.07" y2="174.4" fill="none" stroke="#231815" stroke-linecap="round" stroke-linejoin="round" stroke-width="2"/><line x1="568.8" y1="179.54" x2="583.07" y2="179.54" fill="none" stroke="#231815" stroke-linecap="round" stroke-linejoin="round" stroke-width="2"/></svg>