<svg id="圖層_1" data-name="圖層 1" xmlns="http://www.w3.org/2000/svg" viewBox="0 0 577.04 116.05"><path d="M147.44,16.09a1.72,1.72,0,0,1-.15-.69,1.66,1.66,0,0,1,.94-1.43,1.8,1.8,0,0,1,.72-.16,1.62,1.62,0,0,1,.61.12,1.76,1.76,0,0,1,1,.87,34.18,34.18,0,0,1,2.16,5,1.64,1.64,0,0,1,.11.61,1.72,1.72,0,0,1-.22.83,2.15,2.15,0,0,1-1.06,1,1.16,1.16,0,0,1-.57.15,1.14,1.14,0,0,1-.64-.19,1.48,1.48,0,0,1-.84-.94v-.08a.22.22,0,0,0-.26-.15l-1.4.11a.34.34,0,0,0-.38.38V35.05a2,2,0,0,1-.59,1.42,1.92,1.92,0,0,1-1.42.58,2,2,0,0,1-2-2V21.84a.32.32,0,0,0-.12-.25.39.39,0,0,0-.26-.09l-3.22.19a.42.42,0,0,1-.15,0,1.84,1.84,0,0,1-1.32-.54,1.9,1.9,0,0,1-.72-1.36v-.19a1.85,1.85,0,0,1,1.81-1.89l.5,0a.58.58,0,0,0,.45-.22c.43-.56.91-1.2,1.44-1.93a.53.53,0,0,0,0-.65,34.12,34.12,0,0,0-3-3.56,2.43,2.43,0,0,1-.64-1.43V9.69a2.29,2.29,0,0,1,.41-1.29l.5-.72a.88.88,0,0,1,.66-.39.84.84,0,0,1,.74.24c.07,0,.12,0,.15,0,.75-1.51,1.45-3,2.08-4.61a2.05,2.05,0,0,1,1.1-1.21,2,2,0,0,1,.87-.19,2.17,2.17,0,0,1,.72.11,1.8,1.8,0,0,1,1.09,1.1,1.65,1.65,0,0,1,.16.68,1.74,1.74,0,0,1-.23.83q-2,3.83-3.14,5.6a.45.45,0,0,0,0,.61l.84,1a.29.29,0,0,0,.21.08.23.23,0,0,0,.2-.12c.91-1.48,1.69-2.85,2.35-4.08a1.93,1.93,0,0,1,1.21-1.06,1.79,1.79,0,0,1,.72-.15,1.93,1.93,0,0,1,.87.22,1.7,1.7,0,0,1,1,1.14,1.52,1.52,0,0,1,.08.49,1.74,1.74,0,0,1-.3,1q-3.1,4.74-5.91,8.37a.16.16,0,0,0,0,.19.2.2,0,0,0,.17.11l3-.15a.18.18,0,0,0,.17-.09.23.23,0,0,0,0-.21A9.63,9.63,0,0,0,147.44,16.09Zm-8.55,9.31a1.88,1.88,0,0,1,.72-1.25,1.78,1.78,0,0,1,1.06-.34H141a2,2,0,0,1,1.66,2v.31a37.53,37.53,0,0,1-1.4,6.24,1.49,1.49,0,0,1-1,1,2,2,0,0,1-.65.11,1.7,1.7,0,0,1-.79-.19,2,2,0,0,1-1-1.06,2.43,2.43,0,0,1-.15-.83,3.08,3.08,0,0,1,.07-.68A29.23,29.23,0,0,0,138.89,25.4Zm9.23.37a1.47,1.47,0,0,1-.11-.56,1.32,1.32,0,0,1,.19-.68,1.48,1.48,0,0,1,.94-.84,1.8,1.8,0,0,1,2.27,1.06c.51,1.29.94,2.51,1.29,3.67a2,2,0,0,1,.08.53,1.77,1.77,0,0,1-.23.87,1.86,1.86,0,0,1-1.1.95,1.26,1.26,0,0,1-.53.11,1.61,1.61,0,0,1-.75-.19,1.74,1.74,0,0,1-.84-1.05C149,28.5,148.63,27.21,148.12,25.77ZM158.83,3.25a4,4,0,0,1,1.4-1.38,3.62,3.62,0,0,1,1.86-.51,4,4,0,0,1,3.44,1.82,38.71,38.71,0,0,0,7,7.72,2.58,2.58,0,0,1,.94,1.7,2.38,2.38,0,0,1,0,.46,2.73,2.73,0,0,1-.42,1.44,2.17,2.17,0,0,1-1.55,1,2.45,2.45,0,0,1-.38,0,2,2,0,0,1-1.36-.53c-.2-.21-.42-.41-.64-.61,0-.05-.07-.06-.14,0a.16.16,0,0,0-.09.15,2.83,2.83,0,0,1-2.84,2.84h-6.81a3.09,3.09,0,0,1-3.1-3.1.13.13,0,0,0-.1-.11c-.06,0-.11,0-.13,0l-1.29,1.21a1.78,1.78,0,0,1-1.21.46,2.19,2.19,0,0,1-.42,0,2,2,0,0,1-1.43-1,2.58,2.58,0,0,1-.42-1.44V13a2.65,2.65,0,0,1,.87-1.63A37.75,37.75,0,0,0,158.83,3.25ZM156.22,37a2.15,2.15,0,0,1-2.12-2.12V24.07a3.29,3.29,0,0,1,3.29-3.29H168a3.28,3.28,0,0,1,3.29,3.29V34.63a2.08,2.08,0,0,1-.66,1.55,2.19,2.19,0,0,1-1.57.65h-.49a1.71,1.71,0,0,1-1.71-1.71.17.17,0,0,0-.19-.19h-8.13a.17.17,0,0,0-.19.19,1.81,1.81,0,0,1-.55,1.33,1.84,1.84,0,0,1-1.31.53Zm.87-24.07a.25.25,0,0,0,0,.17.16.16,0,0,0,.15.09h10.34s.09,0,.13-.09a.12.12,0,0,0,0-.17,53.13,53.13,0,0,1-5.26-6.59.17.17,0,0,0-.17-.11.25.25,0,0,0-.21.11A43.32,43.32,0,0,1,157.09,12.91Zm9.8,12.33a.32.32,0,0,0-.37-.37h-7.76c-.26,0-.38.12-.38.37v5.27c0,.25.12.37.38.37h7.76a.32.32,0,0,0,.37-.37Z" fill="#fff"/><path d="M193.11,12.38a.82.82,0,0,1-.63-.27.86.86,0,0,1-.24-.6s0,0,0,0c-.58,1.16-1.14,2.17-1.67,3a1.34,1.34,0,0,0-.19.68V34.93a2,2,0,0,1-.62,1.48,2.08,2.08,0,0,1-1.48.61,2.06,2.06,0,0,1-1.47-.61,2,2,0,0,1-.63-1.48V21.23a.08.08,0,0,0-.07-.09.2.2,0,0,0-.15,0l-.38.49a1.51,1.51,0,0,1-1.18.57h-.26a1.88,1.88,0,0,1-1.33-.91,3.15,3.15,0,0,1-.45-1.63,1.48,1.48,0,0,1,0-.34,2.86,2.86,0,0,1,.79-1.82,40.31,40.31,0,0,0,4-5.67,4,4,0,0,1,2.05-1.78,3.75,3.75,0,0,1,1.4-.27,3.5,3.5,0,0,1,1.21.23l.26.08c.08,0,.12,0,.12-.08a1.15,1.15,0,0,1,.36-.87,1.18,1.18,0,0,1,.85-.34h2.12a.42.42,0,0,0,.45-.38c.1-.61.19-1.08.27-1.44a.23.23,0,0,0,0-.21A.29.29,0,0,0,196,6.7h-1.1a1.52,1.52,0,0,1-1.11-.47,1.56,1.56,0,0,1-.48-1.14A1.52,1.52,0,0,1,193.81,4a1.49,1.49,0,0,1,1.11-.48h1.67a.27.27,0,0,0,.3-.26,2.38,2.38,0,0,0,0-.46,2,2,0,0,1,.76-1.32A2,2,0,0,1,199,1h.15a1.8,1.8,0,0,1,1.29.68,1.69,1.69,0,0,1,.42,1.13,1.47,1.47,0,0,1,0,.27l0,.22c0,.16.05.23.23.23h2.27a3.16,3.16,0,0,1,2.33,1,3.17,3.17,0,0,1,1,2.32V8.59c0,.15.06.23.19.23a1.73,1.73,0,0,1,1.27.51,1.68,1.68,0,0,1,.51,1.23v0a1.75,1.75,0,0,1-.51,1.25,1.71,1.71,0,0,1-1.27.53Zm-6.17-9.69a2.91,2.91,0,0,1,1.47-1.1,2.32,2.32,0,0,1,.91-.19,2,2,0,0,1,.87.19,1.59,1.59,0,0,1,1.06,1.1,1.24,1.24,0,0,1,.12.53,1.6,1.6,0,0,1-.31.94,40.84,40.84,0,0,1-5.45,6.17,1.62,1.62,0,0,1-1.09.42h-.31A1.85,1.85,0,0,1,183,9.88a2.39,2.39,0,0,1-.37-1.29v-.3a2.49,2.49,0,0,1,.71-1.48A29,29,0,0,0,186.94,2.69Zm29.41,10.59a2,2,0,0,1,1.47.63,2,2,0,0,1,.61,1.49,2.08,2.08,0,0,1-2.08,2.09h-.27c-.18,0-.26.08-.26.26V32.1a8.17,8.17,0,0,1-.34,2.63,2.8,2.8,0,0,1-1.25,1.45,6.56,6.56,0,0,1-2,.61,3.42,3.42,0,0,1-.45,0,3.11,3.11,0,0,1-2-.76,4.89,4.89,0,0,1-1.59-2.35c0-.17-.1-.34-.15-.49a.46.46,0,0,0-.49-.34h-3.14a.34.34,0,0,0-.38.38V35a2,2,0,0,1-.59,1.46,2,2,0,0,1-2.87,0,2,2,0,0,1-.59-1.46v-1.7a.34.34,0,0,0-.38-.38h-6a1.59,1.59,0,0,1-1.17-.49,1.69,1.69,0,0,1,1.17-2.88h.38a.2.2,0,0,0,.23-.23V27a.1.1,0,0,0-.11-.11.91.91,0,0,1-.67-.28,1,1,0,0,1-.28-.7v-.69a1.66,1.66,0,0,1,.47-1.17,1.59,1.59,0,0,1,1.19-.49h4.81a.34.34,0,0,0,.38-.38v-1a.33.33,0,0,0-.38-.38H196.7a3.31,3.31,0,0,1-3.29-3.29V17a3.29,3.29,0,0,1,3.29-3.29h7.23A3.28,3.28,0,0,1,207.22,17v1.89a2.82,2.82,0,0,1-.85,2,2.76,2.76,0,0,1-2.06.87.3.3,0,0,0-.34.34v1a.34.34,0,0,0,.38.38h1.44a1.58,1.58,0,0,1,1.19.49,1.7,1.7,0,0,1,0,2.35,1.58,1.58,0,0,1-1.19.49h-1.44c-.25,0-.38.11-.38.34v1.89a.33.33,0,0,0,.38.38h.94A2.73,2.73,0,0,1,208,32.25a.31.31,0,0,0,.3.34l1.71,0q.53,0,.9,0a.72.72,0,0,0,.46-.1.6.6,0,0,0,.11-.43V17.83a.3.3,0,0,0-.34-.34h-1a2,2,0,0,1-1.48-.61,2,2,0,0,1-.6-1.48,2.08,2.08,0,0,1,.6-1.49,2,2,0,0,1,1.48-.63Zm-19.23,3.37a.34.34,0,0,0-.38.38v1.44a.34.34,0,0,0,.38.38h6.13a.34.34,0,0,0,.38-.38V17a.34.34,0,0,0-.38-.38Zm.49,12.49a.33.33,0,0,0,.38.38h1.55a.33.33,0,0,0,.38-.38V27.29a.34.34,0,0,0-.38-.38H198a.34.34,0,0,0-.38.38Zm5.26-22.06a.33.33,0,0,0-.38-.38H200.6a.42.42,0,0,0-.45.38c0,.15-.05.3-.08.45S200,7.85,200,8a4.11,4.11,0,0,0-.08.42.34.34,0,0,0,.08.27.3.3,0,0,0,.24.11h2.27a.33.33,0,0,0,.38-.38ZM215.78,3a2,2,0,0,1,2,2.06,2,2,0,0,1-2,2.06h-5a2,2,0,0,1-1.43-.6,2,2,0,0,1-.61-1.46,2,2,0,0,1,.61-1.46,2,2,0,0,1,1.43-.6Z" fill="#fff"/><path d="M247.37,30.17a.32.32,0,0,0,.37.37h12.42a2.13,2.13,0,0,1,1.57.67,2.23,2.23,0,0,1,0,3.17,2.13,2.13,0,0,1-1.57.67H229.8a2.26,2.26,0,0,1,0-4.51h12.34c.26,0,.38-.12.38-.37v-7a.33.33,0,0,0-.38-.38h-7.91A2.27,2.27,0,0,1,232,20.51a2.25,2.25,0,0,1,2.23-2.23h7.91a.33.33,0,0,0,.38-.38v-6a.33.33,0,0,0-.38-.38h-7.26a.6.6,0,0,0-.57.34c-.68,1.24-1.34,2.33-2,3.29a2.26,2.26,0,0,1-1.59,1l-.42,0a2.43,2.43,0,0,1-1.47-.49,2.09,2.09,0,0,1-1-1.47,3.47,3.47,0,0,1,0-.42,2.3,2.3,0,0,1,.42-1.33,26.73,26.73,0,0,0,2.46-4.2,36.75,36.75,0,0,0,2.16-5.41,2.8,2.8,0,0,1,1.21-1.51,2.4,2.4,0,0,1,1.29-.38A2.32,2.32,0,0,1,236,1,2.26,2.26,0,0,1,237.45,2a2.22,2.22,0,0,1,.3,1.1,2.34,2.34,0,0,1-.11.72c-.28.81-.61,1.73-1,2.76a.24.24,0,0,0,0,.23.25.25,0,0,0,.23.11h5.22c.26,0,.38-.12.38-.37V2.42a2.33,2.33,0,0,1,.7-1.72,2.48,2.48,0,0,1,3.45,0,2.37,2.37,0,0,1,.7,1.72V6.59a.32.32,0,0,0,.37.37h10.45a2.27,2.27,0,0,1,2.23,2.26,2.2,2.2,0,0,1-.66,1.59,2.14,2.14,0,0,1-1.57.66H247.74c-.25,0-.37.12-.37.38v6a.33.33,0,0,0,.37.38h9a2.18,2.18,0,0,1,1.58.66,2.24,2.24,0,0,1-1.58,3.81h-9c-.25,0-.37.12-.37.38Z" fill="#fff"/><path d="M288.53,19.68A3.29,3.29,0,0,1,285.24,23h-7.08a.38.38,0,0,0-.42.38,33.82,33.82,0,0,1-2.34,11.7,1.55,1.55,0,0,1-1.25.94h-.34a1.92,1.92,0,0,1-1.21-.41,2.8,2.8,0,0,1-1-1.52,3.26,3.26,0,0,1-.07-.72,3.13,3.13,0,0,1,.19-1.09q1.77-4.32,1.78-12.61V13.1a3.29,3.29,0,0,1,3.29-3.3h8.48a3.31,3.31,0,0,1,3.29,3.3ZM287.24,2.73a2,2,0,0,1,2.08,2.08,2.07,2.07,0,0,1-2.08,2.08H274.3a2.07,2.07,0,0,1-1.5-.61,2,2,0,0,1-.62-1.47,2,2,0,0,1,.62-1.48,2.1,2.1,0,0,1,1.5-.6ZM284.1,14.31a.33.33,0,0,0-.38-.38h-5.49c-.25,0-.37.12-.37.38v4.16a.33.33,0,0,0,.37.38h5.49a.34.34,0,0,0,.38-.38Zm21.27-.42a2.19,2.19,0,0,1,2.23,2.21,2.19,2.19,0,0,1-.64,1.59,2.11,2.11,0,0,1-1.59.67h-.83c-.25,0-.38.11-.38.34v16a2.18,2.18,0,0,1-.66,1.61,2.21,2.21,0,0,1-1.61.67,2.28,2.28,0,0,1-1.63-.67,2.16,2.16,0,0,1-.68-1.61v-16a.33.33,0,0,0-.38-.37h-3.71c-.25,0-.39.11-.41.34a41.31,41.31,0,0,1-1.54,8.89,22.57,22.57,0,0,1-3.84,7.61,1.81,1.81,0,0,1-1.44.68h0a2.56,2.56,0,0,1-1.63-.68,2.44,2.44,0,0,1-.76-1.48,1.54,1.54,0,0,1,0-.3,2.16,2.16,0,0,1,.46-1.32A18.65,18.65,0,0,0,288.62,28,21.51,21.51,0,0,0,290,23.41c.28-1.58.46-3,.57-4.26s.15-2.66.15-4.2V7.19a2.2,2.2,0,0,1,.87-1.82,2.17,2.17,0,0,1,1.4-.53,2.51,2.51,0,0,1,.57.08,1.38,1.38,0,0,0,.64,0,54.93,54.93,0,0,0,6.77-2.46A4.15,4.15,0,0,1,302.76,2h.45a3.93,3.93,0,0,1,2.12.91,1.61,1.61,0,0,1,.61,1.25v.3a1.62,1.62,0,0,1-1,1.29,70.47,70.47,0,0,1-9.39,3,.47.47,0,0,0-.34.49v4.28a.34.34,0,0,0,.38.38Z" fill="#fff"/><path d="M347.18,2.65a3.28,3.28,0,0,1,3.29,3.29V31.72a7.56,7.56,0,0,1-.43,2.85,3.13,3.13,0,0,1-1.54,1.61,11.16,11.16,0,0,1-4.42.84H344a2.84,2.84,0,0,1-1.74-.61,3.91,3.91,0,0,1-1.21-1.7,2.44,2.44,0,0,1-.08-.57,1.77,1.77,0,0,1,.27-.91,1.44,1.44,0,0,1,1.25-.64h1.36c.51,0,.91,0,1.21,0a1,1,0,0,0,.7-.21.9.9,0,0,0,.21-.66V7.42a.34.34,0,0,0-.38-.38H322.5a.34.34,0,0,0-.38.38V34.78a2.14,2.14,0,0,1-.66,1.57,2.22,2.22,0,0,1-3.18,0,2.14,2.14,0,0,1-.66-1.57V5.94a3.28,3.28,0,0,1,3.29-3.29Zm-5.45,7.08a2,2,0,0,1,1.36,3.33,1.85,1.85,0,0,1-1.36.57H326.25a1.85,1.85,0,0,1-1.36-.57,1.95,1.95,0,0,1,1.36-3.33Zm.19,16.5a3.29,3.29,0,0,1-3.3,3.29h-7.94a.24.24,0,0,0-.27.27V30a2.14,2.14,0,0,1-3.65,1.49,2,2,0,0,1-.62-1.49V19.87a3.28,3.28,0,0,1,3.29-3.29h9.19a3.29,3.29,0,0,1,3.3,3.29Zm-4.28-5.45a.34.34,0,0,0-.38-.38h-6.47a.34.34,0,0,0-.38.38v4.58a.34.34,0,0,0,.38.38h6.47a.34.34,0,0,0,.38-.38Z" fill="#fff"/><path d="M368.62,3.22A2.59,2.59,0,0,1,370,1.85a2.49,2.49,0,0,1,1.09-.26,2.85,2.85,0,0,1,.76.11,2.21,2.21,0,0,1,1.36,1.21,2.08,2.08,0,0,1,.23.91,2,2,0,0,1-.23.87c-.8,1.82-1.69,3.59-2.65,5.3a1.55,1.55,0,0,0-.19.72V34.63a2.21,2.21,0,0,1-.68,1.63,2.33,2.33,0,0,1-4-1.63v-17a.12.12,0,0,0-.1-.14.11.11,0,0,0-.13.06l-.94,1.17a1.78,1.78,0,0,1-1.37.65,1,1,0,0,1-.3,0,2,2,0,0,1-1.51-1.06,3.58,3.58,0,0,1-.46-1.78,4.6,4.6,0,0,1,0-.49,3.88,3.88,0,0,1,.95-2.12A40.12,40.12,0,0,0,368.62,3.22ZM373.35,34a2.46,2.46,0,0,1,0-3.48,2.38,2.38,0,0,1,1.75-.72h19.07a2.46,2.46,0,1,1,0,4.92H375.1A2.38,2.38,0,0,1,373.35,34ZM392.66,7a2.35,2.35,0,0,1,1.74.74,2.46,2.46,0,0,1,0,3.48,2.31,2.31,0,0,1-1.74.74H377.25a2.31,2.31,0,0,1-1.74-.74,2.46,2.46,0,0,1,0-3.48A2.35,2.35,0,0,1,377.25,7Z" fill="#fff"/><path d="M429.47,6.43a.24.24,0,0,0,0,.23.26.26,0,0,0,.23.11H437a3.07,3.07,0,0,1,2.31,1,3.09,3.09,0,0,1,.91,2.19q0,4.32-.53,13.44a72.52,72.52,0,0,1-.72,7.32,8.49,8.49,0,0,1-1.25,3.69,5,5,0,0,1-1.61,1.48,7.3,7.3,0,0,1-2.1.68,23.25,23.25,0,0,1-3,.15,6,6,0,0,1-.72,0,2.56,2.56,0,0,1-1.76-.68,3.82,3.82,0,0,1-1.12-1.7,1.44,1.44,0,0,1-.11-.53,1.59,1.59,0,0,1,.27-.87,1.3,1.3,0,0,1,1.13-.61h.08c1,.06,2.12.08,3.4.08a2.4,2.4,0,0,0,1.71-.64c.53-.61.94-2.44,1.24-5.51s.57-8,.8-14.86a.38.38,0,0,0-.11-.26.36.36,0,0,0-.27-.11H428a.53.53,0,0,0-.53.34c-.48,1-1,2-1.51,3a2.66,2.66,0,0,1-2,1.4c-.2,0-.41,0-.61,0a3.06,3.06,0,0,1-1.82-.61h0a.15.15,0,0,0-.19,0,.18.18,0,0,0-.12.17V29.75A3.28,3.28,0,0,1,418,33h-6.77c-.21,0-.31.09-.31.27v.45a2,2,0,0,1-2.08,2.08,2.07,2.07,0,0,1-2.08-2.08V10.37a3.15,3.15,0,0,1,1-2.35A3.19,3.19,0,0,1,410,7.08h.72a.43.43,0,0,0,.46-.38c.27-1.09.5-2.21.68-3.37a2.57,2.57,0,0,1,1-1.66,2.33,2.33,0,0,1,1.85-.5,1.88,1.88,0,0,1,1.48,1,1.81,1.81,0,0,1,.34,1.06,1.71,1.71,0,0,1-.15.68c-.35,1-.69,2-1,2.8a.21.21,0,0,0,0,.26.26.26,0,0,0,.21.12H418a3.24,3.24,0,0,1,3.29,3.29v2.57a.13.13,0,0,0,.08.14.09.09,0,0,0,.11-.06,36.53,36.53,0,0,0,4.43-10,2.52,2.52,0,0,1,1.1-1.4,2.23,2.23,0,0,1,1.17-.34,1.88,1.88,0,0,1,.53.07,2.21,2.21,0,0,1,1.4,1,2.12,2.12,0,0,1,.31,1.06,1.94,1.94,0,0,1-.12.64C430.06,4.73,429.79,5.53,429.47,6.43Zm-12.8,10.94a.33.33,0,0,0,.38-.38V11.47a.33.33,0,0,0-.38-.38h-5.41a.34.34,0,0,0-.38.38V17a.33.33,0,0,0,.38.38Zm-5.79,11.21a.33.33,0,0,0,.38.37h5.41c.26,0,.38-.12.38-.37V21.73a.33.33,0,0,0-.38-.38h-5.41a.33.33,0,0,0-.38.38Zm21.8-6.1a2.25,2.25,0,0,1,.35,1.18,2.36,2.36,0,0,1-.08.56,2.23,2.23,0,0,1-1.06,1.44,2.19,2.19,0,0,1-1.1.3,2.46,2.46,0,0,1-.57-.07,2.08,2.08,0,0,1-1.36-1.06q-1.22-2.19-3.18-5.19a2,2,0,0,1-.3-1.06,2.28,2.28,0,0,1,0-.45,1.83,1.83,0,0,1,.91-1.25,2.36,2.36,0,0,1,1.13-.3,1.93,1.93,0,0,1,.53.07,2.13,2.13,0,0,1,1.36.91Q431.41,20.44,432.68,22.48Z" fill="#fff"/><path d="M17.91,75a1.37,1.37,0,0,1-1-.44,1.47,1.47,0,0,1-.41-1s-.06,0-.06,0c-1,1.93-1.89,3.6-2.77,5a2.06,2.06,0,0,0-.31,1.13V112.4a3.28,3.28,0,0,1-1,2.45,3.48,3.48,0,0,1-4.9,0,3.27,3.27,0,0,1-1-2.45V89.66a.16.16,0,0,0-.13-.16.37.37,0,0,0-.25,0c-.21.3-.42.57-.63.82a2.48,2.48,0,0,1-1.95.94H3a3.09,3.09,0,0,1-2.2-1.51A5.14,5.14,0,0,1,0,87.08a3.06,3.06,0,0,1,.06-.56,4.8,4.8,0,0,1,1.32-3A67.25,67.25,0,0,0,8.1,74.08a6.69,6.69,0,0,1,3.4-3,6.41,6.41,0,0,1,2.32-.44,5.72,5.72,0,0,1,2,.38l.44.13c.13,0,.19,0,.19-.13a1.89,1.89,0,0,1,.6-1.44,2,2,0,0,1,1.41-.57H22a.69.69,0,0,0,.75-.63c.17-1,.32-1.8.44-2.39a.33.33,0,0,0-.06-.34.44.44,0,0,0-.38-.16H20.92a2.53,2.53,0,0,1-1.85-.78,2.64,2.64,0,0,1,0-3.77,2.51,2.51,0,0,1,1.85-.79h2.77a.45.45,0,0,0,.5-.44,4.74,4.74,0,0,0,.06-.75,3.59,3.59,0,0,1,3.46-3H28a3.05,3.05,0,0,1,2.14,1.13A2.86,2.86,0,0,1,30.79,59a2.08,2.08,0,0,1-.07.44l-.06.37c0,.26.08.38.38.38h3.77a5.46,5.46,0,0,1,5.46,5.47v3c0,.25.11.38.32.38a2.82,2.82,0,0,1,2.1.85,2.76,2.76,0,0,1,.85,2V72a2.89,2.89,0,0,1-.85,2.08,2.81,2.81,0,0,1-2.1.88ZM7.67,58.87a4.79,4.79,0,0,1,2.45-1.82,3.84,3.84,0,0,1,1.5-.31,3.44,3.44,0,0,1,1.45.31,2.66,2.66,0,0,1,1.76,1.82,2.37,2.37,0,0,1,.19.88,2.74,2.74,0,0,1-.51,1.57,68.41,68.41,0,0,1-9,10.24,2.78,2.78,0,0,1-1.83.69h-.5a3,3,0,0,1-2.07-1.44,4,4,0,0,1-.63-2.14v-.5a4.15,4.15,0,0,1,1.19-2.45A47.91,47.91,0,0,0,7.67,58.87ZM56.48,76.46a3.28,3.28,0,0,1,2.45,1,3.44,3.44,0,0,1,1,2.48,3.45,3.45,0,0,1-3.46,3.46H56a.39.39,0,0,0-.44.44v23.81a13.15,13.15,0,0,1-.56,4.37A4.64,4.64,0,0,1,53,114.48a11,11,0,0,1-3.4,1,4.74,4.74,0,0,1-.75.06,5.09,5.09,0,0,1-3.33-1.25,7.92,7.92,0,0,1-2.64-3.9c-.08-.29-.17-.56-.25-.81a.79.79,0,0,0-.82-.57H36.57a.56.56,0,0,0-.63.63v2.83a3.27,3.27,0,0,1-1,2.41,3.36,3.36,0,0,1-5.74-2.41v-2.83a.56.56,0,0,0-.63-.63h-10a2.63,2.63,0,0,1-2-.82,2.66,2.66,0,0,1-.82-2,2.7,2.7,0,0,1,.82-2,2.66,2.66,0,0,1,2-.81h.63a.33.33,0,0,0,.37-.38V99.27a.17.17,0,0,0-.19-.19,1.51,1.51,0,0,1-1.1-.47,1.58,1.58,0,0,1-.47-1.16V96.32a2.7,2.7,0,0,1,.79-1.95,2.64,2.64,0,0,1,2-.82h8a.55.55,0,0,0,.63-.62V91.29a.56.56,0,0,0-.63-.63H23.88a5.46,5.46,0,0,1-5.47-5.46V82.68a5.46,5.46,0,0,1,5.47-5.46h12a5.46,5.46,0,0,1,5.46,5.46v3.15a4.7,4.7,0,0,1-1.41,3.39,4.63,4.63,0,0,1-3.43,1.44.5.5,0,0,0-.56.57v1.7a.55.55,0,0,0,.63.62H39a2.64,2.64,0,0,1,2,.82,2.8,2.8,0,0,1,0,3.9,2.63,2.63,0,0,1-2,.81H36.57q-.63,0-.63.57v3.14a.56.56,0,0,0,.63.63h1.57a4.51,4.51,0,0,1,4.52,4.52.51.51,0,0,0,.5.57c1.13,0,2.08.06,2.83.06.59,0,1.09,0,1.51-.06a1.18,1.18,0,0,0,.75-.16c.13-.1.19-.35.19-.72V84a.5.5,0,0,0-.56-.56h-1.7A3.45,3.45,0,0,1,42.72,80a3.44,3.44,0,0,1,1-2.48,3.3,3.3,0,0,1,2.45-1Zm-31.91,5.6a.55.55,0,0,0-.63.62v2.39a.56.56,0,0,0,.63.63H34.74a.56.56,0,0,0,.63-.63V82.68a.55.55,0,0,0-.63-.62Zm.81,20.73a.56.56,0,0,0,.63.63h2.58a.56.56,0,0,0,.63-.63V99.71a.56.56,0,0,0-.63-.63H26a.56.56,0,0,0-.63.63Zm8.74-36.63a.56.56,0,0,0-.63-.63H30.35a.71.71,0,0,0-.76.63l-.12.75c0,.26-.1.53-.16.82s-.1.53-.13.69a.57.57,0,0,0,.13.44.49.49,0,0,0,.41.19h3.77a.56.56,0,0,0,.63-.63Zm21.42-6.72a3.26,3.26,0,0,1,2.39,1,3.43,3.43,0,0,1-2.39,5.85H47.19a3.26,3.26,0,0,1-2.39-1,3.4,3.4,0,0,1,0-4.84,3.25,3.25,0,0,1,2.39-1Z" fill="#fff"/><path d="M133.86,71.12a3.32,3.32,0,0,1-1,2.45,3.27,3.27,0,0,1-2.39,1A.41.41,0,0,0,130,75q-2,13.82-6.6,23A.92.92,0,0,0,123.5,99a31.25,31.25,0,0,0,7.41,8,3.79,3.79,0,0,1,1.51,2.51,3.07,3.07,0,0,1,.06.57,3.74,3.74,0,0,1-.81,2.32,4.56,4.56,0,0,1-2.83,1.76,3,3,0,0,1-.88.13,3.79,3.79,0,0,1-2.26-.76,34.92,34.92,0,0,1-7-7.47q-.37-.51-.75,0a40.61,40.61,0,0,1-9.55,8,3.66,3.66,0,0,1-3.08.38,4.61,4.61,0,0,1-2.51-2,3.73,3.73,0,0,1-.57-2,7,7,0,0,1,.06-.94,3.49,3.49,0,0,1,1.76-2.33,31.82,31.82,0,0,0,9.8-8.6,1.07,1.07,0,0,0,.13-1.13,71.18,71.18,0,0,1-4-11.94c0-.09,0-.14-.16-.16a.18.18,0,0,0-.22.09,3.55,3.55,0,0,1-2.89,1.76h-.44a4.26,4.26,0,0,1-2.83-1.06,2.12,2.12,0,0,1-.31-.26.58.58,0,0,0-.88.07,67.53,67.53,0,0,1-8.1,8,1.18,1.18,0,0,0-.51,1v.06a.52.52,0,0,0,.19.41.65.65,0,0,0,.44.16l7.79-.63a.61.61,0,0,1,.25-.06,2.83,2.83,0,0,1,2,.82,2.79,2.79,0,0,1,1,2.19,3.56,3.56,0,0,1-.94,2.49,3.47,3.47,0,0,1-2.33,1.16c-1.72.12-4.31.33-7.79.63a.62.62,0,0,0-.63.69v5.65a10.51,10.51,0,0,1-.59,4,4.46,4.46,0,0,1-2.3,2.2,16.56,16.56,0,0,1-5.84,1h-.13a4,4,0,0,1-2.51-.88,4.93,4.93,0,0,1-1.63-2.39,2.06,2.06,0,0,1-.19-.82,2.29,2.29,0,0,1,.44-1.32,2.16,2.16,0,0,1,1.88-1h2.58a1.57,1.57,0,0,0,.88-.19.91.91,0,0,0,.25-.76v-4.83a.49.49,0,0,0-.19-.41.63.63,0,0,0-.44-.16q-3,.25-8.1.76h-.32a3.28,3.28,0,0,1-2.2-.82A3.17,3.17,0,0,1,74,100.65a1.21,1.21,0,0,1-.07-.37,3.13,3.13,0,0,1,.82-2.08A3.19,3.19,0,0,1,77,97c3.27-.21,6.24-.44,8.93-.69.37,0,.56-.17.56-.5V93.55a2.19,2.19,0,0,1,.66-1.6,2.11,2.11,0,0,1,1.54-.66.8.8,0,0,0,.5-.19c1-.88,1.87-1.73,2.7-2.57a.24.24,0,0,0,.07-.28.25.25,0,0,0-.25-.16H88.38a1.87,1.87,0,0,0-1.14.37A60.6,60.6,0,0,1,81.09,93a3.82,3.82,0,0,1-2.2.69,2.79,2.79,0,0,1-.82-.13A4.83,4.83,0,0,1,75.31,92,2.87,2.87,0,0,1,74.55,90a2,2,0,0,1,.07-.57,2.71,2.71,0,0,1,1.44-2.14c1-.58,2-1.23,3.08-1.94a.45.45,0,0,0,.25-.44,2.6,2.6,0,0,1,.82-2,2.68,2.68,0,0,1,2-.79h.94a1.16,1.16,0,0,0,.75-.31q1.07-.89,2.7-2.52a.23.23,0,0,0,.07-.28c-.05-.1-.11-.16-.19-.16H77.38A3.17,3.17,0,0,1,75.09,78a3.25,3.25,0,0,1,0-4.65,3.17,3.17,0,0,1,2.29-.94h5.47a.56.56,0,0,0,.63-.63V68.67a.55.55,0,0,0-.63-.62h-3.4a3.21,3.21,0,0,1,0-6.41h3.46q.57,0,.57-.63V59.37a3.4,3.4,0,0,1,1.06-2.54,3.53,3.53,0,0,1,2.55-1,3.43,3.43,0,0,1,2.51,1,3.46,3.46,0,0,1,1,2.54V61a.56.56,0,0,0,.63.63H93a3.86,3.86,0,0,1,3.9,3.89s0,.08.12.1.13,0,.13,0c.84-1.5,1.65-3.14,2.45-4.9a4.18,4.18,0,0,1,2-2.13,4.47,4.47,0,0,1,1.76-.38,4.84,4.84,0,0,1,1.13.13,3.23,3.23,0,0,1,2.07,1.76,2.86,2.86,0,0,1,.32,1.32,3.59,3.59,0,0,1-.25,1.31,83.58,83.58,0,0,1-5,9.3.18.18,0,0,0,0,.25.25.25,0,0,0,.22.13,3.51,3.51,0,0,1,2.57,1.07A3.47,3.47,0,0,1,105.4,76v.26c0,.08,0,.12.07.12a.17.17,0,0,0,.12-.06,71.89,71.89,0,0,0,5-16.71,4.18,4.18,0,0,1,1.63-2.58,4,4,0,0,1,2.33-.75,3.34,3.34,0,0,1,.62.06,3.72,3.72,0,0,1,2.52,1.57,3.43,3.43,0,0,1,.69,2.07,6.09,6.09,0,0,1-.06.82c-.42,2-.91,4.06-1.45,6a.48.48,0,0,0,.09.44.5.5,0,0,0,.41.19h12.95A3.53,3.53,0,0,1,133.86,71ZM91.27,68.05a.55.55,0,0,0-.63.62v3.08a.56.56,0,0,0,.63.63h.88a1.2,1.2,0,0,0,1-.5c.8-1.17,1.53-2.26,2.2-3.27a.5.5,0,0,0,0-.38.3.3,0,0,0-.28-.18Zm6.15,14.13a.76.76,0,0,0,.32-.06,2.16,2.16,0,0,1,2.2.44l1,.82a.28.28,0,0,0,.44-.07A27.21,27.21,0,0,0,104,79.48a.37.37,0,0,0,0-.38.36.36,0,0,0-.35-.19H97.23a1.19,1.19,0,0,0-1,.51c-.8,1-1.45,1.72-2,2.26a.29.29,0,0,0-.06.31.24.24,0,0,0,.25.19Zm24.7-7a.68.68,0,0,0-.16-.44.5.5,0,0,0-.41-.19h-6.09a.49.49,0,0,0-.41.19.46.46,0,0,0-.1.44A84.41,84.41,0,0,0,118.53,89a.24.24,0,0,0,.22.12A.22.22,0,0,0,119,89,70.52,70.52,0,0,0,122.12,75.21Z" fill="#fff"/><path d="M159.79,76.84a3.27,3.27,0,0,1,1.69,2.39,3.81,3.81,0,0,1,.07.75,3.87,3.87,0,0,1-3.21,3.71h-.63a3.79,3.79,0,0,1-2.19-.69c-1.39-.88-2.89-1.74-4.53-2.58a2.83,2.83,0,0,1-1.57-1.94,2.76,2.76,0,0,1-.12-.82,2.84,2.84,0,0,1,.56-1.64,4.31,4.31,0,0,1,2.39-1.69,4.22,4.22,0,0,1,1.25-.19,5,5,0,0,1,1.7.31A42.6,42.6,0,0,1,159.79,76.84Zm-1.57,16.53a2.66,2.66,0,0,1,2-1.64,2.45,2.45,0,0,1,.75-.12,2.86,2.86,0,0,1,1.76.62,5,5,0,0,1,1.95,3.9,4,4,0,0,1-.44,1.82q-3.08,7.23-6.22,13.57a3.62,3.62,0,0,1-2.33,1.89,4.27,4.27,0,0,1-1,.12,3.63,3.63,0,0,1-2-.62,4.07,4.07,0,0,1-1.82-2.64,4.13,4.13,0,0,1-.13-1.07,4.21,4.21,0,0,1,.57-2.08Q154.82,100.79,158.22,93.37Zm5-33.3a3.29,3.29,0,0,1,1.64,2.45,3.34,3.34,0,0,1,.06.62,3.71,3.71,0,0,1-.75,2.27,3.36,3.36,0,0,1-2.45,1.44,3.07,3.07,0,0,1-.57.06,3.68,3.68,0,0,1-2.26-.75q-2.07-1.38-4.65-2.76a3.06,3.06,0,0,1-1.57-2,5,5,0,0,1-.06-.76,2.9,2.9,0,0,1,.56-1.69,4.2,4.2,0,0,1,2.45-1.7,5.52,5.52,0,0,1,1.13-.13,4.57,4.57,0,0,1,1.82.38A47.11,47.11,0,0,1,163.24,60.07Zm41.72,40a2.81,2.81,0,0,1,2.11.88,2.94,2.94,0,0,1,.85,2.1,2.89,2.89,0,0,1-3,2.92h-.5c-.25,0-.38.15-.38.44v2.39a8.25,8.25,0,0,1-.69,3.8,5.12,5.12,0,0,1-2.32,2.11,20.7,20.7,0,0,1-6.66,1h-.07a4.13,4.13,0,0,1-2.45-.81,5.46,5.46,0,0,1-1.69-2.2,2.06,2.06,0,0,1,.12-2,1.68,1.68,0,0,1,1.64-.88h3.58a1.77,1.77,0,0,0,.94-.28,1.11,1.11,0,0,0,.25-.85v-2.14a.56.56,0,0,0-.63-.63H176.88a.56.56,0,0,0-.63.63v5.47a3.46,3.46,0,0,1-1,2.54,3.55,3.55,0,0,1-5,0,3.46,3.46,0,0,1-1-2.54V106.5a.45.45,0,0,0-.5-.51h-1.39a2.91,2.91,0,0,1-2.07-.84,2.77,2.77,0,0,1-.88-2.08,3,3,0,0,1,2.95-3h1.39a.44.44,0,0,0,.5-.5V89.47A5.48,5.48,0,0,1,174.62,84h7.28a.55.55,0,0,0,.63-.62v-1.2a.56.56,0,0,0-.63-.63H167.58a3,3,0,0,1-3-3,3,3,0,0,1,3-3h6.66a.56.56,0,0,0,.63-.63V73.64a.56.56,0,0,0-.63-.63h-3.39a2.58,2.58,0,0,1-1.83-4.4,2.51,2.51,0,0,1,1.83-.75h3.39a.56.56,0,0,0,.63-.63V65.91a.56.56,0,0,0-.63-.63H170a2.68,2.68,0,0,1-2.71-2.67A2.7,2.7,0,0,1,170,59.94h4.46a.39.39,0,0,0,.44-.44v-.06a3.65,3.65,0,0,1,3.64-3.65,3.62,3.62,0,0,1,2.61,1.07,3.47,3.47,0,0,1,1.1,2.58v.06c0,.29.12.44.38.44h7.09a.39.39,0,0,0,.44-.44,3.59,3.59,0,0,1,1.07-2.64,3.72,3.72,0,0,1,5.22,0,3.59,3.59,0,0,1,1.07,2.64.39.39,0,0,0,.44.44h5.27a2.48,2.48,0,0,1,1.89.79,2.62,2.62,0,0,1,.75,1.88,2.66,2.66,0,0,1-.75,1.89,2.51,2.51,0,0,1-1.89.78h-5.09a.55.55,0,0,0-.62.63v1.32a.55.55,0,0,0,.62.63h4.21a2.56,2.56,0,0,1,2.58,2.57A2.58,2.58,0,0,1,202.32,73h-4.21a.55.55,0,0,0-.62.63v1.25a.55.55,0,0,0,.62.63h6.6a3,3,0,0,1,3,3,3,3,0,0,1-3,3H190.26a.56.56,0,0,0-.63.63v1.2a.55.55,0,0,0,.63.62h8.36a5.48,5.48,0,0,1,5.46,5.47V99.71a.34.34,0,0,0,.38.38ZM182.53,89.91a.56.56,0,0,0-.63-.63h-5a.56.56,0,0,0-.63.63v1.51a.56.56,0,0,0,.63.63h5a.56.56,0,0,0,.63-.63Zm-5.65,7.23a.55.55,0,0,0-.63.62v1.7a.56.56,0,0,0,.63.63h5a.56.56,0,0,0,.63-.63v-1.7a.55.55,0,0,0-.63-.62Zm6-31.86a.56.56,0,0,0-.63.63v1.32a.56.56,0,0,0,.63.63h6.66a.55.55,0,0,0,.62-.63V65.91a.55.55,0,0,0-.62-.63Zm0,7.73a.56.56,0,0,0-.63.63v1.25a.56.56,0,0,0,.63.63h6.66a.55.55,0,0,0,.62-.63V73.64a.55.55,0,0,0-.62-.63Zm13.88,16.9a.56.56,0,0,0-.63-.63h-5.84a.56.56,0,0,0-.63.63v1.51a.56.56,0,0,0,.63.63h5.84a.56.56,0,0,0,.63-.63Zm-7.1,9.55a.56.56,0,0,0,.63.63h5.84a.56.56,0,0,0,.63-.63v-1.7a.55.55,0,0,0-.63-.62h-5.84a.55.55,0,0,0-.63.62Z" fill="#fff"/><path d="M232,80.74a5.46,5.46,0,0,1,5.47,5.46v14.45a2.06,2.06,0,0,0,.31,1.13q3.53,5.48,13.2,5.85c3.18.12,6.51.19,10,.19q8.35,0,17.78-.51h.19a2.33,2.33,0,0,1,1.94,1,2.66,2.66,0,0,1,.51,1.51,3,3,0,0,1-.13.88,6,6,0,0,1-1.88,2.79,4.89,4.89,0,0,1-3,1.16q-7.67.25-14.2.26c-4.06,0-7.81-.07-11.24-.19a30,30,0,0,1-9.65-1.79,16.54,16.54,0,0,1-6.63-4.87c-.29-.34-.58-.38-.88-.13-2.18,1.85-4.1,3.44-5.78,4.78a3.35,3.35,0,0,1-2,.69,6,6,0,0,1-.81-.06,3.45,3.45,0,0,1-2.27-1.89,4.62,4.62,0,0,1-.44-1.95,5.46,5.46,0,0,1,.19-1.38,4.83,4.83,0,0,1,2.08-2.64q2.51-1.63,4.9-3.33a1.19,1.19,0,0,0,.5-1V88.4a.56.56,0,0,0-.63-.63h-4a3.52,3.52,0,0,1,0-7Zm4.72-16.65a3.62,3.62,0,0,1,1.13,2.64,4,4,0,0,1-1.32,3,3.43,3.43,0,0,1-2.39,1,.57.57,0,0,1-.31-.07,3.93,3.93,0,0,1-2.64-1.25,58.89,58.89,0,0,0-5.47-5.15,3.24,3.24,0,0,1-1.13-2.52,3,3,0,0,1,.94-2.2,4.6,4.6,0,0,1,2.77-1.19h.25a4,4,0,0,1,2.51.88A64.58,64.58,0,0,1,236.67,64.09Zm14,31.22a.56.56,0,0,0-.63.63v5.47a3.49,3.49,0,0,1-1,2.51,3.56,3.56,0,0,1-5.09,0,3.48,3.48,0,0,1-1-2.51V77.34a5.46,5.46,0,0,1,5.46-5.46h8.3a.14.14,0,0,0,.15-.13.16.16,0,0,0-.09-.19q-2.38-1.07-5.09-2.2a1.69,1.69,0,0,1-1.16-1.44,1.8,1.8,0,0,1,.66-1.76,5.49,5.49,0,0,1,2.64-1.26,6.86,6.86,0,0,1,.94-.06,5.57,5.57,0,0,1,1.95.38c1.42.54,2.74,1.09,4,1.63a1.18,1.18,0,0,0,1.13-.06A47.42,47.42,0,0,0,265.82,64a.15.15,0,0,0,.09-.18c0-.09-.09-.13-.22-.13H246.34a2.9,2.9,0,0,1-2.89-2.92,2.89,2.89,0,0,1,2.89-2.92h26.77a2.19,2.19,0,0,1,.75-.13,2.48,2.48,0,0,1,1.63.63l1.26,1a2.4,2.4,0,0,1,.94,2,2.29,2.29,0,0,1-.88,1.82,71.66,71.66,0,0,1-8.73,6.41.31.31,0,0,0-.12.29.27.27,0,0,0,.18.28c1.34.67,2.27,1.15,2.77,1.44a2.31,2.31,0,0,0,1.13.32h1.7a5.46,5.46,0,0,1,5.46,5.46v21a9.63,9.63,0,0,1-.56,3.68,4.17,4.17,0,0,1-2.08,2,13.24,13.24,0,0,1-5.53,1.07h-.12a3.37,3.37,0,0,1-2.26-.88,4,4,0,0,1-1.45-2.2,2.28,2.28,0,0,1-.12-.69,2.24,2.24,0,0,1,.37-1.26,2,2,0,0,1,1.7-.88h1.76a1.1,1.1,0,0,0,.75-.28,1,1,0,0,0,.19-.66V95.94a.56.56,0,0,0-.63-.63h-6.28a.56.56,0,0,0-.63.63v5.4a3.25,3.25,0,0,1-1,2.39,3.4,3.4,0,0,1-4.84,0,3.26,3.26,0,0,1-1-2.39v-5.4a.56.56,0,0,0-.63-.63ZM257.46,78a.56.56,0,0,0-.63-.63h-6.15a.56.56,0,0,0-.63.63v2.19a.56.56,0,0,0,.63.63h6.15a.56.56,0,0,0,.63-.63Zm-7.41,11.12a.55.55,0,0,0,.63.62h6.15a.55.55,0,0,0,.63-.62V86.83a.56.56,0,0,0-.63-.63h-6.15a.56.56,0,0,0-.63.63Zm21.17-8.3a.56.56,0,0,0,.63-.63V78a.56.56,0,0,0-.63-.63h-6.28a.56.56,0,0,0-.63.63v2.19a.56.56,0,0,0,.63.63Zm-6.91,8.3a.55.55,0,0,0,.63.62h6.28a.55.55,0,0,0,.63-.62V86.83a.56.56,0,0,0-.63-.63h-6.28a.56.56,0,0,0-.63.63Z" fill="#fff"/><path d="M320,78.48a22.59,22.59,0,0,1,4,.25,2.09,2.09,0,0,1,1.42.81,2.27,2.27,0,0,1,.47,1.57q-1.07,12.57-4.27,20.93a.82.82,0,0,0,.18,1,16.74,16.74,0,0,0,7.07,4,37.89,37.89,0,0,0,9.65,1.19q9.48,0,14.39-.06h.06a2.14,2.14,0,0,1,1.88,1.07,2.31,2.31,0,0,1,.44,1.38,2.5,2.5,0,0,1-.19.88,5.23,5.23,0,0,1-1.76,2.51,4.39,4.39,0,0,1-2.82,1H338.11a44.31,44.31,0,0,1-11.28-1.26,19.83,19.83,0,0,1-8.26-4.4c-.29-.25-.54-.2-.75.13-.63.88-1.28,1.72-1.95,2.51a3.78,3.78,0,0,1-2.83,1.26h-.63a5.87,5.87,0,0,1-3.52-2,.71.71,0,0,0-.15-.22.25.25,0,0,0-.25-.06c-.11,0-.16.09-.16.22v1.25a3.25,3.25,0,0,1-1,2.36,3.33,3.33,0,0,1-5.69-2.36V83c0-.13,0-.2-.13-.22a.16.16,0,0,0-.19.09A10,10,0,0,0,300.6,84a2.16,2.16,0,0,1-1.82,1,1.53,1.53,0,0,1-.44-.07,2.25,2.25,0,0,1-1.95-1.57,8.12,8.12,0,0,1-.56-3v-.88a8.39,8.39,0,0,1,1.38-3.77A69.29,69.29,0,0,0,305,59.37a3.66,3.66,0,0,1,1.76-2.13,3.88,3.88,0,0,1,1.63-.38,4.59,4.59,0,0,1,1.07.13l.75.25a2.49,2.49,0,0,1,1.64,1.32,2.4,2.4,0,0,1,.31,1.19,2.12,2.12,0,0,1-.19.88c0,.21,0,.32.25.32h6.85a.26.26,0,0,0,.19-.07,4,4,0,0,1,1.95,0l1.44.38a2.2,2.2,0,0,1,1.42,1.13,2.08,2.08,0,0,1,.09,1.82q-2.32,6.29-5.53,14c-.12.21-.06.32.19.32ZM308.64,69.3a2.44,2.44,0,0,0-.31,1.2V109a.24.24,0,0,0,.19.25.41.41,0,0,0,.31,0,21.05,21.05,0,0,0,4.59-5.53,1.09,1.09,0,0,0,0-1.13,49.77,49.77,0,0,1-3.71-9.93,3.07,3.07,0,0,1-.12-.82,2.88,2.88,0,0,1,.44-1.5,3.11,3.11,0,0,1,1.88-1.45,2.66,2.66,0,0,1,.82-.12,2.5,2.5,0,0,1,1.38.44,2.65,2.65,0,0,1,1.38,1.76,31.7,31.7,0,0,0,1.2,3.89.21.21,0,0,0,.22.13c.1,0,.15,0,.15-.13a69.7,69.7,0,0,0,2-10.18.5.5,0,0,0-.09-.44.53.53,0,0,0-.41-.19h-2.2a.45.45,0,0,0-.44.32,3,3,0,0,1-1.44,1.51,3.05,3.05,0,0,1-1.39.31,4.39,4.39,0,0,1-.69-.06l-.63-.13a2.76,2.76,0,0,1-2.07-2.57,2.56,2.56,0,0,1,.25-1.07q3-7,6-14.7a.36.36,0,0,0,0-.35.31.31,0,0,0-.28-.16h-1.13a3.43,3.43,0,0,1-3.46-3.45s-.06-.07-.18-.07C310.23,65.43,309.48,67.33,308.64,69.3Zm25.83.06a.55.55,0,0,0,.62-.62V67.17a.55.55,0,0,0-.62-.63h-4.59a2.7,2.7,0,0,1-2-.82,2.66,2.66,0,0,1-.82-2,2.6,2.6,0,0,1,.82-2,2.78,2.78,0,0,1,2-.78h4.77c.3,0,.44-.17.44-.5v-.82a3.3,3.3,0,0,1,1-2.45,3.41,3.41,0,0,1,2.45-1,3.31,3.31,0,0,1,2.42,1,3.34,3.34,0,0,1,1,2.45v.82a.44.44,0,0,0,.5.5h4.9a5.48,5.48,0,0,1,5.47,5.46v2.58a.27.27,0,0,0,.31.31h.06a2.67,2.67,0,0,1,1.95.82,2.73,2.73,0,0,1,.82,2,2.7,2.7,0,0,1-.82,2,2.67,2.67,0,0,1-1.95.82h-.06a.27.27,0,0,0-.31.31V78a5.48,5.48,0,0,1-5.47,5.46h-4.78a.55.55,0,0,0-.62.63v1.76a.55.55,0,0,0,.62.63h7.86a2.77,2.77,0,0,1,2.76,2.76,2.66,2.66,0,0,1-.81,2,2.7,2.7,0,0,1-1.95.82h-7.86a.55.55,0,0,0-.62.62v1.89a.55.55,0,0,0,.62.63h9.43A2.69,2.69,0,0,1,354,96a2.73,2.73,0,0,1,.81,2,2.6,2.6,0,0,1-.81,2,2.71,2.71,0,0,1-1.95.79h-9.43a.55.55,0,0,0-.62.62v1.83a3.34,3.34,0,0,1-1,2.45,3.3,3.3,0,0,1-2.42,1,3.4,3.4,0,0,1-2.45-1,3.3,3.3,0,0,1-1-2.45v-1.83c0-.41-.18-.62-.56-.62h-7a2.68,2.68,0,0,1-2-.79,2.65,2.65,0,0,1-.78-2,2.78,2.78,0,0,1,.78-2,2.66,2.66,0,0,1,2-.81h7a.55.55,0,0,0,.62-.63V92.67a.55.55,0,0,0-.62-.62h-5.41a2.66,2.66,0,0,1-1.94-.82,2.63,2.63,0,0,1-.82-2,2.78,2.78,0,0,1,2.76-2.76h5.41a.55.55,0,0,0,.62-.63V84.13a.55.55,0,0,0-.62-.63h-4.59a2.7,2.7,0,0,1-2-.82,2.72,2.72,0,0,1,0-3.89,2.74,2.74,0,0,1,2-.82h4.59a.55.55,0,0,0,.62-.63V75.58a.55.55,0,0,0-.62-.62h-8.8a2.8,2.8,0,0,1,0-5.6Zm12-2.19a.56.56,0,0,0-.63-.63h-3.21a.55.55,0,0,0-.62.63v1.57a.54.54,0,0,0,.62.62h3.21a.55.55,0,0,0,.63-.62ZM345.84,78a.56.56,0,0,0,.63-.63V75.58a.55.55,0,0,0-.63-.62h-3.21a.55.55,0,0,0-.62.62v1.76a.55.55,0,0,0,.62.63Z" fill="#fff"/><path d="M391.05,87.27a4.91,4.91,0,0,1,.82,2.7,4.86,4.86,0,0,1-.95,2.89,1.73,1.73,0,0,1-1.5.82.54.54,0,0,1-.25-.06,1.79,1.79,0,0,1-1.58-1.07c-.58-1.3-1.21-2.6-1.88-3.9,0-.08-.09-.11-.16-.09s-.09.07-.09.16v23.62a3.3,3.3,0,0,1-1,2.45,3.44,3.44,0,0,1-2.48,1,3.45,3.45,0,0,1-3.46-3.46v-20s0-.07-.09-.09-.09,0-.09.09a64.79,64.79,0,0,1-3.71,8.8,1.77,1.77,0,0,1-1.57.94h-.19a2,2,0,0,1-1.7-1.13,7,7,0,0,1,.13-6.54,66.63,66.63,0,0,0,6.53-17.71.48.48,0,0,0-.09-.44.5.5,0,0,0-.41-.19h-3a3.52,3.52,0,0,1,0-7h3.58a.55.55,0,0,0,.62-.63V59.25a3.45,3.45,0,0,1,3.46-3.46,3.44,3.44,0,0,1,2.48,1,3.3,3.3,0,0,1,1,2.45v9.17a.56.56,0,0,0,.63.63h3.64a1.85,1.85,0,0,1,1.29.5,1.66,1.66,0,0,1,.53,1.26c0,.13.07.17.19.13a42.41,42.41,0,0,0,6.82-5.53,58.63,58.63,0,0,0,5.81-6.66,6.35,6.35,0,0,1,5.4-2.89,7,7,0,0,1,5.66,2.76A49.22,49.22,0,0,0,427.3,69.3a3.7,3.7,0,0,1,1.7,2.33,3.28,3.28,0,0,1,.12.88,3.23,3.23,0,0,1-.62,1.94,3.87,3.87,0,0,1-2.39,1.83,4.1,4.1,0,0,1-.94.12,3.27,3.27,0,0,1-1.95-.63c-.92-.67-1.86-1.4-2.83-2.2a.14.14,0,0,0-.15,0,.15.15,0,0,0-.1.16,3.12,3.12,0,0,1-1,2.29,3.16,3.16,0,0,1-2.3,1H403.11a2.87,2.87,0,0,1-2.07-.88,2.84,2.84,0,0,1-.88-2.08.14.14,0,0,0-.09-.15.15.15,0,0,0-.16,0c-1.22,1-2.41,1.93-3.58,2.76a2.66,2.66,0,0,1-1.64.57,2.91,2.91,0,0,1-.87-.13,3.46,3.46,0,0,1-2.08-1.63l-.12-.25h-.07a.85.85,0,0,1-.25.63.89.89,0,0,1-.63.25h-4.58a.56.56,0,0,0-.63.63v1.57a2.09,2.09,0,0,0,.31,1.13C387,81.09,388.7,83.71,391.05,87.27Zm6.72,12.13a4.11,4.11,0,0,1,1.64-2.2,3.6,3.6,0,0,1,1.88-.57,4,4,0,0,1,.76.07,3.29,3.29,0,0,1,2.2,1.57,2.9,2.9,0,0,1,.5,1.63,3.14,3.14,0,0,1-.13.94c-.17.55-.33,1-.5,1.51a.8.8,0,0,0,.25.94c1.05.92,2,1.8,2.83,2.64a3,3,0,0,1,.94,2.2,3.27,3.27,0,0,1-1,2.39,2.65,2.65,0,0,1-1.94.81H405a3.26,3.26,0,0,1-2.14-1.06c-.42-.46-.86-.92-1.32-1.39-.25-.29-.5-.27-.75.07a23,23,0,0,1-4.84,5.34,3,3,0,0,1-1.88.69,3.36,3.36,0,0,1-.63-.06,4.11,4.11,0,0,1-2.33-1.39,2.82,2.82,0,0,1-.69-1.88v-.32a3,3,0,0,1,1.13-2.07A20.93,20.93,0,0,0,397.77,99.4Zm1.13-4.15a5.46,5.46,0,0,1-5.46-5.47V85.39a5.46,5.46,0,0,1,5.46-5.47h4.72a5.22,5.22,0,0,1,3.89,1.6,5.32,5.32,0,0,1,1.57,3.87v4.39a5.32,5.32,0,0,1-1.57,3.87,5.22,5.22,0,0,1-3.89,1.6Zm.76-10.18a.56.56,0,0,0-.63.63v3.77a.56.56,0,0,0,.63.63h2.95a.56.56,0,0,0,.63-.63V85.7a.56.56,0,0,0-.63-.63Zm3.77-14.45a.22.22,0,0,0-.06.28.23.23,0,0,0,.25.16h13.32c.08,0,.14,0,.18-.16a.14.14,0,0,0-.06-.22,64.33,64.33,0,0,1-6.66-7.47.35.35,0,0,0-.37-.16.48.48,0,0,0-.38.22A54.47,54.47,0,0,1,403.43,70.62ZM415.18,99.4a3.62,3.62,0,0,1,1.5-2.14,3.2,3.2,0,0,1,1.89-.63,3.51,3.51,0,0,1,.69.07,3.27,3.27,0,0,1,2.2,1.44,2.94,2.94,0,0,1,.57,1.7,3.41,3.41,0,0,1-.13.88,13.37,13.37,0,0,1-.44,1.5.81.81,0,0,0,.25,1c2.77,2.26,4.88,4,6.35,5.34a3.11,3.11,0,0,1,1.06,2.45,3.33,3.33,0,0,1-1,2.45,3.06,3.06,0,0,1-2.33,1h-.06a3.26,3.26,0,0,1-2.39-1q-1.93-1.89-4.46-4.15c-.29-.25-.56-.21-.81.13a19.41,19.41,0,0,1-4.28,4.58,3,3,0,0,1-1.75.57,3.36,3.36,0,0,1-.63-.06,3.93,3.93,0,0,1-2.26-1.32,2.94,2.94,0,0,1-.63-1.83V111a3,3,0,0,1,1.06-2A18.39,18.39,0,0,0,415.18,99.4Zm1.76-4.15a5.46,5.46,0,0,1-5.47-5.47V85.39a5.46,5.46,0,0,1,5.47-5.47h5.21a5.46,5.46,0,0,1,5.47,5.47v4.39a5.46,5.46,0,0,1-5.47,5.47Zm.94-10.18a.56.56,0,0,0-.63.63v3.77a.56.56,0,0,0,.63.63h3.2a.56.56,0,0,0,.63-.63V85.7a.56.56,0,0,0-.63-.63Z" fill="#fff"/><path d="M455,76.84a3.14,3.14,0,0,1,1.57,2.39,3.36,3.36,0,0,1,.06.63,3.61,3.61,0,0,1-.75,2.2,3.36,3.36,0,0,1-2.46,1.44,3,3,0,0,1-.56.06,4.08,4.08,0,0,1-2.26-.69,42.31,42.31,0,0,0-3.9-2.32,2.88,2.88,0,0,1-1.51-2,4.74,4.74,0,0,1-.06-.75,2.68,2.68,0,0,1,.57-1.64,4.58,4.58,0,0,1,2.38-1.69,5.71,5.71,0,0,1,1.2-.13,4.5,4.5,0,0,1,1.76.38A40.27,40.27,0,0,1,455,76.84Zm-3.21,17.22a2.82,2.82,0,0,1,1.82-1.76,2.62,2.62,0,0,1,.94-.19,2.77,2.77,0,0,1,1.51.44A4.74,4.74,0,0,1,458,95a4.36,4.36,0,0,1,.32,1.57,4.7,4.7,0,0,1-.26,1.51q-2.13,6.28-5,13.44a3.38,3.38,0,0,1-2.07,2,4,4,0,0,1-1.2.19,3.55,3.55,0,0,1-1.69-.44,4.3,4.3,0,0,1-1.95-2.45,4,4,0,0,1-.25-1.38,3.79,3.79,0,0,1,.44-1.76Q449.34,101,451.78,94.06ZM457.44,60A3.52,3.52,0,0,1,459,62.45a3.36,3.36,0,0,1,.06.63,3.46,3.46,0,0,1-.82,2.26,3.29,3.29,0,0,1-2.38,1.45h-.51A3.88,3.88,0,0,1,453,66c-1.18-.83-2.45-1.65-3.83-2.45a3,3,0,0,1-1.51-2,2.19,2.19,0,0,1-.13-.75,2.76,2.76,0,0,1,.63-1.7,4.29,4.29,0,0,1,2.45-1.63,5.2,5.2,0,0,1,1.07-.13,4.07,4.07,0,0,1,1.82.44Q455.61,58.88,457.44,60Zm4.21,44a4.46,4.46,0,0,1,2.19-2,3.7,3.7,0,0,1,1.76-.44,3.56,3.56,0,0,1,1.07.19,3,3,0,0,1,2,1.64,3.24,3.24,0,0,1,.25,1.25,3.17,3.17,0,0,1-.31,1.32,49.09,49.09,0,0,1-4.84,7.42,3.21,3.21,0,0,1-2.45,1.31,1.16,1.16,0,0,1-.44.07,3.88,3.88,0,0,1-2.32-.76,2.84,2.84,0,0,1-1.32-2.07,2.23,2.23,0,0,1-.07-.5,2.89,2.89,0,0,1,.76-1.89A38.4,38.4,0,0,0,461.65,104ZM475.4,58.31a5.46,5.46,0,0,1,5.47,5.46v31a5.46,5.46,0,0,1-5.47,5.46h-8.54a5.48,5.48,0,0,1-5.47-5.46v-31a5.48,5.48,0,0,1,5.47-5.46Zm-1.88,12a.56.56,0,0,0,.63-.63V65.53a.56.56,0,0,0-.63-.63h-5a.55.55,0,0,0-.62.63v4.15a.55.55,0,0,0,.62.63Zm0,11.56a.56.56,0,0,0,.63-.63V77a.56.56,0,0,0-.63-.63h-5a.55.55,0,0,0-.62.63v4.21a.55.55,0,0,0,.62.63Zm0,11.75a.56.56,0,0,0,.63-.63V88.72a.56.56,0,0,0-.63-.63h-5a.55.55,0,0,0-.62.63V93a.55.55,0,0,0,.62.63Zm.63,12.5a2.65,2.65,0,0,1-.57-1.63,1.7,1.7,0,0,1,.13-.69,2.68,2.68,0,0,1,1.44-2,3.62,3.62,0,0,1,1.83-.51,6,6,0,0,1,.81.07,3.87,3.87,0,0,1,2.26,1.44c1.14,1.51,2.12,2.91,3,4.21a3.35,3.35,0,0,1,.5,1.76,2.93,2.93,0,0,1-.13.88,3.7,3.7,0,0,1-1.63,2.2,3.44,3.44,0,0,1-1.63.44,3.26,3.26,0,0,1-.95-.13,3.45,3.45,0,0,1-2.13-1.63Q475.84,108.57,474.15,106.12Zm10.9-42.88a3.27,3.27,0,0,1,4.65,0,3.19,3.19,0,0,1,1,2.35V96.13a3.22,3.22,0,0,1-1,2.36,3.27,3.27,0,0,1-4.65,0,3.22,3.22,0,0,1-1-2.36V65.59A3.19,3.19,0,0,1,485.05,63.24Zm9.64-3.93a3.46,3.46,0,1,1,6.91,0v47.94a13.46,13.46,0,0,1-.62,4.62,4.72,4.72,0,0,1-2.33,2.48,17.36,17.36,0,0,1-6.78,1.38h-.19a4.05,4.05,0,0,1-2.7-1,4.77,4.77,0,0,1-1.76-2.64,2.18,2.18,0,0,1-.19-.88,2.6,2.6,0,0,1,.56-1.57,2.43,2.43,0,0,1,2.08-1.07h3.58a1.59,1.59,0,0,0,1.13-.31,1.39,1.39,0,0,0,.31-1Z" fill="#fff"/><path d="M521.87,110.39a2,2,0,0,1-1.25,1.1,2.07,2.07,0,0,1-1.7-.16,1.9,1.9,0,0,1-1-1.25,2.21,2.21,0,0,1-.13-.76,2.32,2.32,0,0,1,.19-.94A34.57,34.57,0,0,0,519.8,98a1.86,1.86,0,0,1,.72-1.35,1.65,1.65,0,0,1,1.48-.34,2.13,2.13,0,0,1,1.44.85,2.34,2.34,0,0,1,.51,1.66Q523.44,106.63,521.87,110.39ZM565,99.33a3.69,3.69,0,0,1,1.25-2.19,3.3,3.3,0,0,1,2.14-.76h.19a2.78,2.78,0,0,1,2.13,1.07,2.63,2.63,0,0,1,.7,1.76,2.15,2.15,0,0,1-.07.5,26.57,26.57,0,0,1-.63,3.08,1.2,1.2,0,0,0,.32,1.07c2.09,2.18,3.83,4.12,5.21,5.84a2.7,2.7,0,0,1,.7,1.76,2.15,2.15,0,0,1-.07.5,2.93,2.93,0,0,1-1.19,2,2.76,2.76,0,0,1-1.7.63,2.14,2.14,0,0,1-.5-.06,3,3,0,0,1-1.95-1.19c-.79-1-1.76-2.25-2.89-3.59a.47.47,0,0,0-.34-.12.39.39,0,0,0-.35.19,17.36,17.36,0,0,1-1.82,2.64,4.18,4.18,0,0,1-3.27,1.5.57.57,0,0,1-.25-.06,6.14,6.14,0,0,1-3.9-1.57c-.08-.08-.16-.17-.25-.25a.26.26,0,0,0-.37.06,1.91,1.91,0,0,1-1.54.57,1.81,1.81,0,0,1-1.42-.82c-.63-.8-1.36-1.65-2.2-2.58a.32.32,0,0,0-.34-.15.48.48,0,0,0-.35.22,19.94,19.94,0,0,1-1.82,2.89,4.48,4.48,0,0,1-3.39,1.57h-.32a7.11,7.11,0,0,1-4.08-1.64l-.13-.12a.36.36,0,0,0-.4,0,.45.45,0,0,0-.29.28,4.56,4.56,0,0,1-.62,1.26,5.09,5.09,0,0,1-3.71,2.2,16.24,16.24,0,0,1-2.52.25h-.06a3,3,0,0,1-2.07-.82,3.94,3.94,0,0,1-1.26-2.14,2,2,0,0,1,.35-1.76,1.89,1.89,0,0,1,1.6-.81h.82a1.9,1.9,0,0,0,1.63-.76c.38-.58.69-2.47.94-5.65a.22.22,0,0,0-.06-.13.09.09,0,0,0-.13,0,1.46,1.46,0,0,1-1.19-.12,1.33,1.33,0,0,1-.69-.94,46.88,46.88,0,0,0-1.76-5.34,1.19,1.19,0,0,1,0-1.07,1.12,1.12,0,0,1,.82-.69,1.38,1.38,0,0,1,1.19,0,1.7,1.7,0,0,1,.82.85,22.62,22.62,0,0,1,1,2.51.19.19,0,0,0,.13.06s.08,0,.12-.12c0-1.22.11-3,.19-5.41a.57.57,0,0,0-.19-.47.68.68,0,0,0-.44-.16h-11a5.48,5.48,0,0,1-5.47-5.46V63.58a5.43,5.43,0,0,1,5.47-5.46h14a2.85,2.85,0,0,1,2.07.85,2.77,2.77,0,0,1,.88,2.1,2.91,2.91,0,0,1-.88,2.14,2.84,2.84,0,0,1-2.07.88H536.7a.56.56,0,0,0-.63.63v2.76a.5.5,0,0,0,.57.57h2.13a2.77,2.77,0,0,1,2,.81,2.73,2.73,0,0,1,.81,2,2.69,2.69,0,0,1-.81,2,2.74,2.74,0,0,1-2,.82h-2.13a.5.5,0,0,0-.57.56V77q0,.63.57.63H539a2.73,2.73,0,0,1,2,.81,2.7,2.7,0,0,1,.82,2,2.66,2.66,0,0,1-.82,2,2.7,2.7,0,0,1-2,.82h-2.32a.5.5,0,0,0-.57.56v2.89a.56.56,0,0,0,.63.63H538a5.36,5.36,0,0,1,5.34,5.34q0,4.22-.44,12.13a48.91,48.91,0,0,1-.69,6.28.28.28,0,0,0,.12.22.23.23,0,0,0,.25,0q5.28-3.76,6.6-11.87a3.82,3.82,0,0,1,1.26-2.2,3.27,3.27,0,0,1,2.07-.76h.25a2.79,2.79,0,0,1,2.08,1.07,2.52,2.52,0,0,1,.69,1.76,1.68,1.68,0,0,1-.07.5,24,24,0,0,1-.5,2.58,1,1,0,0,0,.32,1,59.14,59.14,0,0,1,4.9,5.52q.38.51.75,0A18.94,18.94,0,0,0,565,99.33Zm-40.21-.44a1.66,1.66,0,0,1,.34-1.22,1.48,1.48,0,0,1,1.1-.6,1.74,1.74,0,0,1,1.23.35,1.5,1.5,0,0,1,.59,1.1,61.51,61.51,0,0,1,.44,7.66,6.09,6.09,0,0,1-.06.82,1.85,1.85,0,0,1-.5,1.29,1.92,1.92,0,0,1-1.26.59,1.22,1.22,0,0,1-1.16-.34,1.6,1.6,0,0,1-.47-1.16c0-.72.06-1.45.06-2.2Q525.14,102.1,524.83,98.89Zm5.4-34.17a.56.56,0,0,0-.63-.63h-2.7a.56.56,0,0,0-.63.63v2.7a.56.56,0,0,0,.63.63h2.7a.56.56,0,0,0,.63-.63ZM529.6,77.6a.56.56,0,0,0,.63-.63v-2.7a.56.56,0,0,0-.63-.63h-2.7a.56.56,0,0,0-.63.63V77a.56.56,0,0,0,.63.63Zm-2.7,5.59a.56.56,0,0,0-.63.63v2.82a.56.56,0,0,0,.63.63h2.7a.56.56,0,0,0,.63-.63V83.82a.56.56,0,0,0-.63-.63ZM529,98.39a1.62,1.62,0,0,1,.22-1.19,1.42,1.42,0,0,1,1-.69,1.61,1.61,0,0,1,1.25.25,1.57,1.57,0,0,1,.7,1,62.77,62.77,0,0,1,1.38,7.29,1.67,1.67,0,0,1-.38,1.23,1.9,1.9,0,0,1-1.13.66,1.29,1.29,0,0,1-1.13-.29,1.44,1.44,0,0,1-.57-1A45.17,45.17,0,0,0,529,98.39Zm26.58-21.8a3.54,3.54,0,0,1-2.64-1.1,3.62,3.62,0,0,1-1.07-2.61.22.22,0,0,0-.12-.19.28.28,0,0,0-.25,0,36.1,36.1,0,0,1-3.14,2.58,2.78,2.78,0,0,1-1.58.5,2.29,2.29,0,0,1-.94-.19,3.45,3.45,0,0,1-2-1.69,3.7,3.7,0,0,1-.5-1.82,3.28,3.28,0,0,1,.12-.88,3.6,3.6,0,0,1,1.51-2.27,37.09,37.09,0,0,0,9.74-10.17,5.9,5.9,0,0,1,5.09-2.89,6.35,6.35,0,0,1,5.34,2.82,38.62,38.62,0,0,0,10.12,9.68,3.91,3.91,0,0,1,1.69,2.32,4.66,4.66,0,0,1,.13,1.07,4,4,0,0,1-.44,1.82,3.62,3.62,0,0,1-2.33,1.76,2.93,2.93,0,0,1-.88.13,3.37,3.37,0,0,1-1.88-.57c-.8-.62-1.61-1.27-2.45-1.94a.18.18,0,0,0-.22,0c-.06,0-.1.08-.1.12a3.33,3.33,0,0,1-1,2.51,3.4,3.4,0,0,1-2.48,1Zm-4.77,18.53a5.46,5.46,0,0,1-5.47-5.46V85a5.24,5.24,0,0,1,1.6-3.9,5.32,5.32,0,0,1,3.87-1.57h2.89a5.31,5.31,0,0,1,3.86,1.57,5.24,5.24,0,0,1,1.6,3.9v4.71a5.46,5.46,0,0,1-5.46,5.46ZM551,84.19a.55.55,0,0,0-.62.63v4.9a.55.55,0,0,0,.62.63h2.33a.56.56,0,0,0,.63-.63v-4.9a.56.56,0,0,0-.63-.63Zm2.83-13.63a.25.25,0,0,0-.06.28A.23.23,0,0,0,554,71h12.31a.25.25,0,0,0,.26-.16.24.24,0,0,0-.07-.28,40.51,40.51,0,0,1-6.15-7.42A.41.41,0,0,0,560,63a.26.26,0,0,0-.28.18A38.75,38.75,0,0,1,553.79,70.56Zm13.13,24.56a5.46,5.46,0,0,1-5.46-5.46V85a5.24,5.24,0,0,1,1.6-3.9,5.31,5.31,0,0,1,3.86-1.57h3.4A5.36,5.36,0,0,1,575.78,85v4.71a5.3,5.3,0,0,1-1.57,3.86,5.24,5.24,0,0,1-3.89,1.6Zm.13-10.93a.56.56,0,0,0-.63.63v4.9a.56.56,0,0,0,.63.63h2.76a.56.56,0,0,0,.63-.63v-4.9a.56.56,0,0,0-.63-.63Z" fill="#fff"/></svg>